<svg xmlns="http://www.w3.org/2000/svg" width="269" height="90" viewBox="0 0 269 90">
  <g fill="#FFF" transform="translate(-.409 -.063)">
    <g opacity=".6">
      <path d="M0.248053343,17.5863136 C5.08509353,11.6560451 11.3277693,6.83003342 18.479974,3.76265314 C22.0767475,2.2085138 25.8802321,1.18605371 29.8077434,0.695272863 C33.7352546,0.204492018 37.7041081,0.32718723 41.6316194,0.899764881 C49.4452997,2.08581859 57.0522689,5.23499567 63.2122602,10.3063977 C69.4135938,15.3369014 74.0439229,22.4532236 75.8216385,30.3057171 C76.276403,32.2688405 76.5657985,34.2319639 76.7311674,36.2359857 C76.7725096,36.7267665 76.7725096,37.2584458 76.8138519,37.7492266 C76.8138519,38.2809059 76.8551941,38.6898899 76.8551941,39.3442643 C76.8138519,40.3667244 76.6898252,41.3482861 76.5657985,42.3298478 C76.0696918,46.2560946 75.1188207,50.1414429 73.6305006,53.8631977 C72.1008383,57.5849524 70.0337272,61.1431135 67.2224559,64.2104938 C64.4525269,67.2778741 60.8557535,69.7317783 56.9695844,71.2041208 C53.0834154,72.7173618 48.8665086,73.3308378 44.8976551,73.3308378 C40.639406,73.2899394 36.6705525,72.4719713 32.7843835,70.9587304 C28.9395567,69.4045911 25.3841254,66.9915852 22.6555387,63.8015098 C19.9682941,60.6114343 18.2319207,56.7260859 17.363734,52.8407376 L17.4050762,52.9634328 C16.9089695,51.1230046 16.7849429,49.4461701 16.7849429,47.6875387 C16.7849429,45.9698057 17.0743384,44.2111744 17.6531296,42.5752382 C18.1905785,40.9393021 19.0587652,39.3851628 20.133663,38.0764138 C21.2085608,36.7676649 22.7795653,35.9905952 24.1438587,35.3362208 L24.1438587,35.3362208 C22.9449342,36.4404777 21.9940631,37.4629378 21.2085608,38.8125851 C20.4644008,40.1622324 19.9682941,41.634575 19.6788985,43.1069175 C19.389503,44.57926 19.4308452,46.092501 19.5548719,47.6057419 C19.7202408,49.0780844 20.0509786,50.6322238 20.5470852,51.8591759 L20.5884275,51.9818711 C21.7046675,55.3764386 23.3996987,58.5256157 25.7975477,61.0204183 C28.1540544,63.5561193 31.1720368,65.3556491 34.4794147,66.5826012 C37.7454503,67.8095533 41.383566,68.4639278 44.7736284,68.4639278 C48.4530863,68.5048262 51.9258331,67.9322485 55.1918688,66.7052964 C58.4165623,65.4783443 61.3518602,63.5152209 63.7083669,60.9795199 C66.1062159,58.4438189 67.9252737,55.3764386 69.2895671,52.1045663 C70.6952027,48.832694 71.6047317,45.2745329 72.1421806,41.7163718 C72.2662072,40.8166069 72.3902339,39.916842 72.4315761,39.0579755 C72.4729184,38.7307883 72.4315761,38.199109 72.4315761,37.790125 C72.4315761,37.3402426 72.4315761,36.9312585 72.3902339,36.4813761 C72.3075495,34.6818463 72.0594961,32.923215 71.6874161,31.205482 C70.199096,24.2527534 66.3542692,17.831704 60.8557535,13.0874892 C55.3572377,8.34327435 48.4944285,5.11230046 41.2181972,3.72175474 C37.5800815,3.02648187 33.8592813,2.78109145 30.1384812,3.02648187 C26.417681,3.3127707 22.7382231,4.04894197 19.2241341,5.35769088 C15.7100451,6.6255414 12.3199827,8.34327435 9.17797369,10.4290929 C5.95328023,12.5558099 2.85261344,14.8461205 0.248053343,17.5863136 L0.248053343,17.5863136 Z" opacity=".9" transform="translate(17.777)"/>
    </g>
    <g opacity=".7" transform="translate(27.7 4.908)">
      <path d="M16.0821251,29.7740379 C12.195956,31.0827868 8.97126257,33.4139958 6.98683583,36.6449697 C4.91972463,39.8759436 4.21690683,43.7203935 4.25824905,47.5239451 C4.25824905,49.4461701 4.46496017,51.368395 4.87838241,53.1679248 C5.29180465,55.008353 5.87059578,56.7260859 6.73878248,58.4029205 C8.43381366,61.6747928 10.9970315,64.4967826 14.0563561,66.664398 C20.2163474,70.9587304 28.2780811,72.9627522 35.7610236,71.9402921 C37.6214237,71.6540033 39.4404815,71.2041208 41.1768549,70.508848 L42.4998061,69.8953719 C42.9132283,69.7317783 43.3266506,69.4863879 43.7400728,69.2818958 C44.6082595,68.8320134 45.435104,68.3412326 46.2619485,67.8504517 C49.5693264,65.7646331 52.5873087,63.2698305 55.0678421,60.3251454 C57.5483756,57.3804604 59.5328023,54.0676897 60.6903846,50.4277317 C61.8479668,46.8286722 62.3027313,42.9842223 62.0133357,39.0988739 C61.7239402,35.254424 60.8144112,31.409974 59.4501179,27.6882193 C59.1193801,26.747556 58.7886423,25.8068927 58.3338778,24.9071278 L57.7137445,23.5574805 L57.4243489,22.8622077 L57.3416644,22.698614 L57.25898,22.5759188 L57.0936111,22.28963 C56.1840822,20.6127955 55.0678421,18.9359609 53.8275754,17.3818216 C48.949193,11.1243658 42.293095,6.13476055 34.6034413,3.55816112 C26.9137877,0.981561689 18.3972896,0.817968074 10.2942137,2.45390422 L10.2942137,2.45390422 C14.3044094,1.30874892 18.3972896,0.32718723 22.6141964,0.204492018 C26.8311033,0.0817968074 31.0893523,0.490780844 35.2235747,1.59503774 C37.2906859,2.1676154 39.2751126,2.86288826 41.2595394,3.72175474 C43.2026239,4.62151962 45.1043662,5.60308131 46.8820818,6.78913501 C50.4375131,9.16124243 53.7035487,12.0241307 56.4734777,15.2551046 C57.8791134,16.8910407 59.1607223,18.6087737 60.2769623,20.4901002 L60.4836735,20.8581859 L60.6077001,21.0626779 L60.6903846,21.2262715 L61.0211224,21.9624428 L61.7239402,23.3938869 C62.2200469,24.3345502 62.5921269,25.3161119 63.0055491,26.2976736 C64.6178958,30.2239203 65.7754781,34.3955575 66.2302426,38.7307883 C66.4782959,40.8984037 66.4782959,43.1069175 66.312927,45.2745329 C66.0648737,47.4421483 65.6927937,49.6506621 65.0313181,51.7773791 C63.7497091,56.0308131 61.5585713,59.9570598 58.7473001,63.3516273 C55.9360288,66.7461948 52.6286509,69.6499815 48.9078508,72.0220889 C47.9983219,72.5946665 47.0474507,73.1672442 46.0552373,73.6989234 C45.5591307,73.9443139 45.063024,74.2306027 44.5255751,74.4759931 L43.037255,75.1303676 C40.9288016,76.0301325 38.6963215,76.6027101 36.4638414,76.9298973 C31.9988812,77.5842718 27.4512366,77.297983 23.1103031,76.2755229 C20.9191653,75.7438436 18.8107118,75.0485708 16.7436006,74.1488059 C14.7178317,73.2081426 12.7334049,72.1038857 10.9143471,70.7542384 C7.27623139,68.0958421 4.13422238,64.5785794 2.27382231,60.4069422 C1.32295116,58.3211237 0.661475581,56.1535083 0.330737791,53.9449945 C0.124026671,52.8407376 0.0826844476,51.7364807 0.0413422238,50.5913254 C0.0413422238,49.4870685 0.0413422238,48.42371 0.124026671,47.3194531 C0.413422238,42.9842223 1.86040007,38.4853979 4.79569796,35.049932 C7.77233808,31.6962629 12.4853516,29.6922411 16.0821251,29.7740379 L16.0821251,29.7740379 Z" opacity=".9"/>
      <path d="M16.0821251,29.7740379 C12.195956,31.0827868 8.97126257,33.4139958 6.98683583,36.6449697 C4.91972463,39.8759436 4.21690683,43.7203935 4.25824905,47.5239451 C4.25824905,49.4461701 4.46496017,51.368395 4.87838241,53.1679248 C5.29180465,55.008353 5.87059578,56.7260859 6.73878248,58.4029205 C8.43381366,61.6747928 10.9970315,64.4967826 14.0563561,66.664398 C20.2163474,70.9587304 28.2780811,72.9627522 35.7610236,71.9402921 C37.6214237,71.6540033 39.4404815,71.2041208 41.1768549,70.508848 L42.4998061,69.8953719 C42.9132283,69.7317783 43.3266506,69.4863879 43.7400728,69.2818958 C44.6082595,68.8320134 45.435104,68.3412326 46.2619485,67.8504517 C49.5693264,65.7646331 52.5873087,63.2698305 55.0678421,60.3251454 C57.5483756,57.3804604 59.5328023,54.0676897 60.6903846,50.4277317 C61.8479668,46.8286722 62.3027313,42.9842223 62.0133357,39.0988739 C61.7239402,35.254424 60.8144112,31.409974 59.4501179,27.6882193 C59.1193801,26.747556 58.7886423,25.8068927 58.3338778,24.9071278 L57.7137445,23.5574805 L57.4243489,22.8622077 L57.3416644,22.698614 L57.25898,22.5759188 L57.0936111,22.28963 C56.1840822,20.6127955 55.0678421,18.9359609 53.8275754,17.3818216 C48.949193,11.1243658 42.293095,6.13476055 34.6034413,3.55816112 C26.9137877,0.981561689 18.3972896,0.817968074 10.2942137,2.45390422 L10.2942137,2.45390422 C14.3044094,1.30874892 18.3972896,0.32718723 22.6141964,0.204492018 C26.8311033,0.0817968074 31.0893523,0.490780844 35.2235747,1.59503774 C37.2906859,2.1676154 39.2751126,2.86288826 41.2595394,3.72175474 C43.2026239,4.62151962 45.1043662,5.60308131 46.8820818,6.78913501 C50.4375131,9.16124243 53.7035487,12.0241307 56.4734777,15.2551046 C57.8791134,16.8910407 59.1607223,18.6087737 60.2769623,20.4901002 L60.4836735,20.8581859 L60.6077001,21.0626779 L60.6903846,21.2262715 L61.0211224,21.9624428 L61.7239402,23.3938869 C62.2200469,24.3345502 62.5921269,25.3161119 63.0055491,26.2976736 C64.6178958,30.2239203 65.7754781,34.3955575 66.2302426,38.7307883 C66.4782959,40.8984037 66.4782959,43.1069175 66.312927,45.2745329 C66.0648737,47.4421483 65.6927937,49.6506621 65.0313181,51.7773791 C63.7497091,56.0308131 61.5585713,59.9570598 58.7473001,63.3516273 C55.9360288,66.7461948 52.6286509,69.6499815 48.9078508,72.0220889 C47.9983219,72.5946665 47.0474507,73.1672442 46.0552373,73.6989234 C45.5591307,73.9443139 45.063024,74.2306027 44.5255751,74.4759931 L43.037255,75.1303676 C40.9288016,76.0301325 38.6963215,76.6027101 36.4638414,76.9298973 C31.9988812,77.5842718 27.4512366,77.297983 23.1103031,76.2755229 C20.9191653,75.7438436 18.8107118,75.0485708 16.7436006,74.1488059 C14.7178317,73.2081426 12.7334049,72.1038857 10.9143471,70.7542384 C7.27623139,68.0958421 4.13422238,64.5785794 2.27382231,60.4069422 C1.32295116,58.3211237 0.661475581,56.1535083 0.330737791,53.9449945 C0.124026671,52.8407376 0.0826844476,51.7364807 0.0413422238,50.5913254 C0.0413422238,49.4870685 0.0413422238,48.42371 0.124026671,47.3194531 C0.413422238,42.9842223 1.86040007,38.4853979 4.79569796,35.049932 C7.77233808,31.6962629 12.4440094,29.7331395 16.0821251,29.7740379 L16.0821251,29.7740379 Z" opacity=".4"/>
    </g>
    <g opacity=".8" transform="translate(18.19 9.407)">
      <path d="M38.6549793,0.0817968074 C46.923424,2.04492018 54.7371043,6.25745576 60.6077001,12.5967083 C63.542998,15.7458854 65.8995048,19.4676402 67.5945359,23.4756837 C69.2895671,27.4837273 70.199096,31.7780597 70.5711761,36.0723921 C70.6538605,37.1357505 70.736545,38.2400074 70.736545,39.3033659 C70.7778872,40.3667244 70.7778872,41.4709813 70.6952027,42.5343398 L70.6125183,44.170276 L70.6125183,44.57926 L70.5711761,45.0291425 L70.4471494,45.8471105 C70.2817805,46.9513674 70.0750694,48.0147259 69.827016,49.0780844 C68.8348027,53.3315184 67.3051404,57.4213588 65.1553447,61.3067071 C63.0468913,65.1511571 60.1942779,68.7093182 56.7628733,71.6540033 C53.2901265,74.5168915 49.1972463,76.7254053 44.8563128,77.9932558 C42.7065172,78.6885287 40.4740371,79.0566143 38.241557,79.3838016 C37.125317,79.5064968 36.0090769,79.5882936 34.8928369,79.6700904 L33.1978057,79.7109888 L32.329619,79.7109888 C32.0402235,79.7109888 31.8335123,79.7518872 31.3787479,79.7109888 C26.789761,79.2202079 22.4901698,77.9932558 18.3972896,76.0710309 C14.3044094,74.1488059 10.5009249,71.4086128 7.52428474,67.8913501 C6.03596468,66.1327188 4.71301352,64.2104938 3.72080014,62.1655736 C2.68724455,60.1206534 1.86040007,57.953038 1.36429339,55.7854226 C0.826844476,53.5769088 0.578791134,51.3274966 0.413422238,49.0780844 C0.413422238,47.9738275 0.330737791,46.8695706 0.372080014,45.7653137 L0.454764462,44.0884792 L0.496106686,43.2705111 C0.53744891,42.9024255 0.578791134,42.6161366 0.620133357,42.3298478 C0.950871148,40.0395372 1.61234673,37.8719218 2.43919121,35.7452048 C3.30737791,33.6593862 4.42361795,31.5735676 5.91193801,29.7740379 C7.35891584,27.9745081 9.21931591,26.4203688 11.2864271,25.2752135 C13.3535383,24.1300582 15.6273606,23.4756837 17.9011829,23.2302933 C22.4488275,22.7804109 25.9215743,23.8028709 29.1462678,25.6024007 L29.1462678,25.6024007 C24.929361,25.0298231 22.2007742,24.9071278 18.3972896,25.9295879 C16.4955473,26.3794704 14.7178317,27.1974385 13.1881694,28.3016954 C11.6585071,29.3650538 10.335556,30.7147012 9.30200036,32.2688405 C7.19354694,35.3362208 5.95328023,39.1806707 5.49851577,42.9433239 C5.45717354,43.1478159 5.45717354,43.4341047 5.45717354,43.5567999 L5.45717354,44.2929712 L5.41583132,45.7653137 C5.41583132,46.7468754 5.49851577,47.7284371 5.49851577,48.7099988 C5.70522689,50.6731222 5.91193801,52.5953471 6.40804469,54.4766737 C6.86280915,56.3580003 7.52428474,58.15753 8.35112921,59.875263 C9.17797369,61.592996 10.2528715,63.1880337 11.4931382,64.6603762 C13.9736717,67.5641629 17.1156807,69.9362703 20.6711119,71.6131049 C24.1852009,73.2899394 28.1540544,74.4350947 31.9988812,74.9258756 C32.0815657,74.966774 32.4123035,74.9258756 32.6603568,74.9258756 L33.4045168,74.9258756 L34.8928369,74.9258756 C35.8850503,74.8849772 36.8772636,74.8031803 37.869477,74.7213835 C39.8539038,74.4759931 41.7969883,74.1897043 43.6987306,73.6171266 C51.347042,71.5722065 57.7964289,66.255414 61.8066246,59.3435838 C63.8323936,55.9081178 65.3620559,52.1454647 66.3956115,48.2192179 C66.6436648,47.2376563 66.8917181,46.2560946 67.057087,45.2745329 L67.1811137,44.5383616 L67.2224559,44.2111744 L67.2637982,43.8430888 L67.3878248,42.3298478 C67.5118515,41.3073877 67.5118515,40.325826 67.5531937,39.3033659 C67.5945359,38.2809059 67.5531937,37.2584458 67.5118515,36.2768841 C67.1811137,28.1790001 64.4938692,20.162913 59.2020645,13.8236604 C56.5975044,10.633585 53.4141532,7.89339191 49.9414064,5.64397971 C46.4273174,3.39456751 42.665175,1.30874892 38.6549793,0.0817968074 L38.6549793,0.0817968074 Z" opacity=".7"/>
      <path d="M38.6549793,0.0817968074 C46.923424,2.04492018 54.7371043,6.25745576 60.6077001,12.5967083 C63.542998,15.7458854 65.8995048,19.4676402 67.5945359,23.4756837 C69.2895671,27.4837273 70.199096,31.7780597 70.5711761,36.0723921 C70.6538605,37.1357505 70.736545,38.2400074 70.736545,39.3033659 C70.7778872,40.3667244 70.7778872,41.4709813 70.6952027,42.5343398 L70.6125183,44.170276 L70.6125183,44.57926 L70.5711761,45.0291425 L70.4471494,45.8471105 C70.2817805,46.9513674 70.0750694,48.0147259 69.827016,49.0780844 C68.8348027,53.3315184 67.3051404,57.4213588 65.1553447,61.3067071 C63.0468913,65.1511571 60.1942779,68.7093182 56.7628733,71.6540033 C53.2901265,74.5168915 49.1972463,76.7254053 44.8563128,77.9932558 C42.7065172,78.6885287 40.4740371,79.0566143 38.241557,79.3838016 C37.125317,79.5064968 36.0090769,79.5882936 34.8928369,79.6700904 L33.1978057,79.7109888 L32.329619,79.7109888 C32.0402235,79.7109888 31.8335123,79.7518872 31.3787479,79.7109888 C26.789761,79.2202079 22.4901698,77.9932558 18.3972896,76.0710309 C14.3044094,74.1488059 10.5009249,71.4086128 7.52428474,67.8913501 C6.03596468,66.1327188 4.71301352,64.2104938 3.72080014,62.1655736 C2.68724455,60.1206534 1.86040007,57.953038 1.36429339,55.7854226 C0.826844476,53.5769088 0.578791134,51.3274966 0.413422238,49.0780844 C0.413422238,47.9738275 0.330737791,46.8695706 0.372080014,45.7653137 L0.454764462,44.0884792 L0.496106686,43.2705111 C0.53744891,42.9024255 0.578791134,42.6161366 0.620133357,42.3298478 C0.950871148,40.0395372 1.61234673,37.8719218 2.43919121,35.7452048 C3.30737791,33.6593862 4.42361795,31.5735676 5.91193801,29.7740379 C7.35891584,27.9745081 9.21931591,26.4203688 11.2864271,25.2752135 C13.3535383,24.1300582 15.6273606,23.4756837 17.9011829,23.2302933 C22.4488275,22.7804109 25.8802321,23.8028709 29.1462678,25.6024007 L29.1462678,25.6024007 C24.929361,25.0298231 22.2007742,24.9071278 18.3972896,25.9295879 C16.4955473,26.3794704 14.7178317,27.1974385 13.1881694,28.3016954 C11.6585071,29.3650538 10.335556,30.7147012 9.30200036,32.2688405 C7.19354694,35.3362208 5.95328023,39.1806707 5.49851577,42.9433239 C5.45717354,43.1478159 5.45717354,43.4341047 5.45717354,43.5567999 L5.45717354,44.2929712 L5.41583132,45.7653137 C5.41583132,46.7468754 5.49851577,47.7284371 5.49851577,48.7099988 C5.70522689,50.6731222 5.91193801,52.5953471 6.40804469,54.4766737 C6.86280915,56.3580003 7.52428474,58.15753 8.35112921,59.875263 C9.17797369,61.592996 10.2528715,63.1880337 11.4931382,64.6603762 C13.9736717,67.5641629 17.1156807,69.9362703 20.6711119,71.6131049 C24.1852009,73.2899394 28.1540544,74.4350947 31.9988812,74.9258756 C32.0815657,74.966774 32.4123035,74.9258756 32.6603568,74.9258756 L33.4045168,74.9258756 L34.8928369,74.9258756 C35.8850503,74.8849772 36.8772636,74.8031803 37.869477,74.7213835 C39.8539038,74.4759931 41.7969883,74.1897043 43.6987306,73.6171266 C51.347042,71.5722065 57.7964289,66.255414 61.8066246,59.3435838 C63.8323936,55.9081178 65.3620559,52.1454647 66.3956115,48.2192179 C66.6436648,47.2376563 66.8917181,46.2560946 67.057087,45.2745329 L67.1811137,44.5383616 L67.2224559,44.2111744 L67.2637982,43.8430888 L67.3878248,42.3298478 C67.5118515,41.3073877 67.5118515,40.325826 67.5531937,39.3033659 C67.5945359,38.2809059 67.5531937,37.2584458 67.5118515,36.2768841 C67.1811137,28.1790001 64.4938692,20.162913 59.2020645,13.8236604 C56.5975044,10.633585 53.4141532,7.89339191 49.9414064,5.64397971 C46.4273174,3.39456751 42.665175,1.30874892 38.6549793,0.0817968074 L38.6549793,0.0817968074 Z" opacity=".4"/>
    </g>
    <g opacity=".9" transform="translate(7.855 21.676)">
      <path d="M64.3698425,0 C70.4058072,5.76667492 75.4082163,14.1917461 76.4831141,22.6577156 C76.7311674,24.7844326 76.7725096,26.9111496 76.5657985,29.0378666 C76.3590874,31.1645836 75.9870074,33.2504022 75.5322429,35.3362208 C74.5400296,39.4669596 73.0103673,43.4750031 70.8605716,47.2376563 C68.7521182,50.959411 66.0648737,54.4357753 62.8401802,57.339562 C59.6154868,60.284247 55.8946866,62.6563545 51.9258331,64.4558842 C47.9156374,66.2145156 43.6573884,67.4005693 39.2337704,67.8095533 C34.8101525,68.2185374 30.3038501,67.8095533 26.045601,66.6234996 C17.4877607,64.2513922 9.7154226,58.8119045 5.04375131,51.163903 C0.330737791,43.5567999 -0.992213372,33.9047767 1.86040007,25.3161119 C3.22469346,21.0217795 5.66388466,17.1364311 8.72320923,13.8645589 C10.2528715,12.2286227 12.0305871,10.7971786 13.9736717,9.57022646 C14.965885,8.95675041 15.9994406,8.42507116 17.1156807,7.97518872 C17.6944718,7.7297983 18.2319207,7.56620468 18.7693696,7.44350947 C19.3068185,7.27991586 19.8442674,7.15722065 20.3817163,7.03452543 C22.5728542,6.54374459 24.8466765,6.29835417 27.1204988,6.42104938 C29.3943211,6.54374459 31.6268012,7.03452543 33.6939124,7.85249351 C37.869477,9.52932806 41.1355127,12.8420988 42.7892017,16.1548695 L42.7892017,16.1548695 C39.6885349,13.373778 36.6292103,11.2879594 32.8257257,10.3881945 C30.9239834,9.89741369 28.9808989,9.77471848 27.0791566,9.89741369 C25.1774143,9.9792105 23.275672,10.3881945 21.4152719,10.9607722 C20.9605075,11.0834674 20.505743,11.247061 20.0509786,11.451553 C19.5962141,11.6151466 19.1414496,11.7787403 18.7693696,11.9423339 C17.9838674,12.3104195 17.1983651,12.8012004 16.4128629,13.3328796 C14.8832006,14.3962381 13.477565,15.704987 12.195956,17.0955327 C9.63273815,19.9175226 7.68965363,23.3120901 6.49072914,26.8702512 C4.09288016,34.0274719 5.12643575,42.2889494 9.09528924,48.7508972 C13.0641427,55.2946418 19.7202408,60.2433486 27.2031833,62.4518624 C34.727468,64.7012746 42.9545706,63.9651034 50.3134864,60.9795199 C57.6724022,57.9939364 63.9564203,52.5544487 68.1733271,45.7653137 C70.2817805,42.3707462 71.8941272,38.6489915 73.0103673,34.7636431 C74.1266073,30.8782948 74.8294251,26.9111496 74.5400296,22.9031061 C74.2919762,18.8950625 73.1757362,14.9279173 71.480705,11.2061626 C69.8683583,7.48440788 67.1811137,3.02648187 64.3698425,0 L64.3698425,0 Z" opacity=".7"/>
      <path d="M64.3698425,0 C70.4058072,5.76667492 75.4082163,14.1917461 76.4831141,22.6577156 C76.7311674,24.7844326 76.7725096,26.9111496 76.5657985,29.0378666 C76.3590874,31.1645836 75.9870074,33.2504022 75.5322429,35.3362208 C74.5400296,39.4669596 73.0103673,43.4750031 70.8605716,47.2376563 C68.7521182,50.959411 66.0648737,54.4357753 62.8401802,57.339562 C59.6154868,60.284247 55.8946866,62.6563545 51.9258331,64.4558842 C47.9156374,66.2145156 43.6573884,67.4005693 39.2337704,67.8095533 C34.8101525,68.2185374 30.3038501,67.8095533 26.045601,66.6234996 C17.4877607,64.2513922 9.7154226,58.8119045 5.04375131,51.163903 C0.330737791,43.5567999 -0.992213372,33.9047767 1.86040007,25.3161119 C3.22469346,21.0217795 5.66388466,17.1364311 8.72320923,13.8645589 C10.2528715,12.2286227 12.0305871,10.7971786 13.9736717,9.57022646 C14.965885,8.95675041 15.9994406,8.42507116 17.1156807,7.97518872 C17.6944718,7.7297983 18.2319207,7.56620468 18.7693696,7.44350947 C19.3068185,7.27991586 19.8442674,7.15722065 20.3817163,7.03452543 C22.5728542,6.54374459 24.8466765,6.29835417 27.1204988,6.42104938 C29.3943211,6.54374459 31.6268012,7.03452543 33.6939124,7.85249351 C37.869477,9.52932806 41.2181972,12.8829972 42.7892017,16.1548695 L42.7892017,16.1548695 C39.6885349,13.373778 36.6292103,11.2879594 32.8257257,10.3881945 C30.9239834,9.89741369 28.9808989,9.77471848 27.0791566,9.89741369 C25.1774143,9.9792105 23.275672,10.3881945 21.4152719,10.9607722 C20.9605075,11.0834674 20.505743,11.247061 20.0509786,11.451553 C19.5962141,11.6151466 19.1414496,11.7787403 18.7693696,11.9423339 C17.9838674,12.3104195 17.1983651,12.8012004 16.4128629,13.3328796 C14.8832006,14.3962381 13.477565,15.704987 12.195956,17.0955327 C9.63273815,19.9175226 7.68965363,23.3120901 6.49072914,26.8702512 C4.09288016,34.0274719 5.12643575,42.2889494 9.09528924,48.7508972 C13.0641427,55.2946418 19.7202408,60.2433486 27.2031833,62.4518624 C34.727468,64.7012746 42.9545706,63.9651034 50.3134864,60.9795199 C57.6724022,57.9939364 63.9564203,52.5544487 68.1733271,45.7653137 C70.2817805,42.3707462 71.8941272,38.6489915 73.0103673,34.7636431 C74.1266073,30.8782948 74.8294251,26.9111496 74.5400296,22.9031061 C74.2919762,18.8950625 73.1757362,14.9279173 71.480705,11.2061626 C69.8683583,7.48440788 67.1811137,3.02648187 64.3698425,0 L64.3698425,0 Z" opacity=".4"/>
    </g>
    <g transform="translate(108.317 21.267)">
      <path d="M.372080014 2.37210741C.372080014 1.26785051 1.24026671.408984037 2.39784898.408984037 3.51408902.408984037 4.38227573 1.26785051 4.38227573 2.37210741L4.38227573 9.9383121 15.2552806 9.9383121 15.2552806 2.37210741C15.2552806 1.26785051 16.1234673.408984037 17.2397073.408984037 18.3972896.408984037 19.2654763 1.26785051 19.2654763 2.37210741L19.2654763 21.3080683C19.2654763 22.4123252 18.3972896 23.2711917 17.2397073 23.2711917 16.1234673 23.2711917 15.2552806 22.4123252 15.2552806 21.3080683L15.2552806 13.6191684 4.38227573 13.6191684 4.38227573 21.3080683C4.38227573 22.4123252 3.51408902 23.2711917 2.39784898 23.2711917 1.24026671 23.2711917.372080014 22.4123252.372080014 21.3080683L.372080014 2.37210741zM23.9371476 2.57659943C23.9371476 1.43144413 24.8053343.572577652 25.9629166.572577652L39.2337704.572577652C40.2259838.572577652 41.0528283 1.39054573 41.0528283 2.37210741 41.0528283 3.3536691 40.2259838 4.17163718 39.2337704 4.17163718L27.9473433 4.17163718 27.9473433 10.3063977 37.7867926 10.3063977C38.7790059 10.3063977 39.6058504 11.1243658 39.6058504 12.1059275 39.6058504 13.0874892 38.7790059 13.9054573 37.7867926 13.9054573L27.9473433 13.9054573 27.9473433 21.2671699C27.9473433 22.3714268 27.0791566 23.2302933 25.9629166 23.2302933 24.8053343 23.2302933 23.9371476 22.3714268 23.9371476 21.2671699L23.9371476 2.57659943zM44.153495 2.37210741C44.153495 1.26785051 45.0216817.408984037 46.179264.408984037 47.2955041.408984037 48.1636908 1.26785051 48.1636908 2.37210741L48.1636908 9.9383121 59.0366956 9.9383121 59.0366956 2.37210741C59.0366956 1.26785051 59.9048823.408984037 61.0211224.408984037 62.1787046.408984037 63.0468913 1.26785051 63.0468913 2.37210741L63.0468913 21.3080683C63.0468913 22.4123252 62.1787046 23.2711917 61.0211224 23.2711917 59.9048823 23.2711917 59.0366956 22.4123252 59.0366956 21.3080683L59.0366956 13.6191684 48.1636908 13.6191684 48.1636908 21.3080683C48.1636908 22.4123252 47.2955041 23.2711917 46.179264 23.2711917 45.0216817 23.2711917 44.153495 22.4123252 44.153495 21.3080683L44.153495 2.37210741zM67.057087 11.9014355L67.057087 11.8196387C67.057087 5.39858929 71.8941272.163593615 78.7982786.163593615 82.3123676.163593615 84.6275322 1.18605371 86.6119589 2.69929464 87.0253811 3.02648187 87.3974612 3.55816112 87.3974612 4.29433239 87.3974612 5.39858929 86.5292745 6.21655736 85.4130344 6.21655736 84.8755855 6.21655736 84.4621633 6.01206534 84.2141099 5.84847173 82.6431054 4.58062121 80.9480742 3.80355154 78.7982786 3.80355154 74.4573451 3.80355154 71.2739939 7.36171266 71.2739939 11.7378419L71.2739939 11.8196387C71.2739939 16.2366663 74.4160029 19.7948274 78.7982786 19.7948274 81.1961276 19.7948274 82.8498165 19.0177577 84.5035055 17.627212 84.7929011 17.3818216 85.2063233 17.1773295 85.70243 17.1773295 86.6946434 17.1773295 87.6041723 17.9952976 87.6041723 19.0177577 87.6041723 19.6312338 87.3147767 20.1220146 86.9426967 20.4492018 84.7929011 22.3305284 82.3537099 23.4756837 78.6742519 23.4756837 72.0181539 23.4756837 67.057087 18.3633833 67.057087 11.9014355z"/>
      <path d="M.372080014 1.1451553C.372080014.613476055.826844476.163593615 1.36429339.163593615 1.9017423.163593615 2.35650676.613476055 2.35650676 1.1451553L2.35650676 7.97518872 12.4440094 7.97518872 12.4440094 1.1451553C12.4440094.613476055 12.8987738.163593615 13.4362227.163593615 13.9736717.163593615 14.4284361.613476055 14.4284361 1.1451553L14.4284361 16.7274471C14.4284361 17.2591264 13.9736717 17.7090088 13.4362227 17.7090088 12.8987738 17.7090088 12.4440094 17.2591264 12.4440094 16.7274471L12.4440094 9.81561689 2.35650676 9.81561689 2.35650676 16.7274471C2.35650676 17.2591264 1.9017423 17.7090088 1.36429339 17.7090088.826844476 17.7090088.372080014 17.2591264.372080014 16.7274471L.372080014 1.1451553zM17.9838674 16.6047519L17.9838674 1.26785051C17.9838674.736171266 18.4386318.286288826 18.9760807.286288826L29.8490856.286288826C30.3451923.286288826 30.7586145.695272863 30.7586145 1.18605371 30.7586145 1.67683455 30.3451923 2.08581859 29.8490856 2.08581859L19.9682941 2.08581859 19.9682941 8.01608712 28.7328456 8.01608712C29.2289522 8.01608712 29.6423745 8.42507116 29.6423745 8.915852 29.6423745 9.40663285 29.2289522 9.81561689 28.7328456 9.81561689L19.9682941 9.81561689 19.9682941 15.8685806 29.9731123 15.8685806C30.469219 15.8685806 30.8826412 16.2775647 30.8826412 16.7683455 30.8826412 17.2591264 30.469219 17.6681104 29.9731123 17.6681104L18.9760807 17.6681104C18.4386318 17.5863136 17.9838674 17.1364311 17.9838674 16.6047519zM32.7843835 16.3184631L39.895246.940663285C40.1432993.408984037 40.5153793.0817968074 41.1355127.0817968074L41.2181972.0817968074C41.8383305.0817968074 42.2104105.408984037 42.4584639.940663285L49.5693264 16.2775647C49.6520108 16.4411583 49.693353 16.6047519 49.693353 16.7683455 49.693353 17.3000248 49.2799308 17.7090088 48.7424819 17.7090088 48.2877174 17.7090088 47.9569796 17.3818216 47.7502685 16.9728375L45.9312107 13.0056924 36.3398147 13.0056924 34.5207569 17.0546343C34.355388 17.4636184 34.0246502 17.7090088 33.5698857 17.7090088 33.0737791 17.7090088 32.6603568 17.3000248 32.6603568 16.8092439 32.6603568 16.6865487 32.701699 16.4820567 32.7843835 16.3184631zM45.1870506 11.247061L41.1768549 2.37210741 37.1666592 11.247061 45.1870506 11.247061zM52.3392554 1.1451553C52.3392554.613476055 52.7940198.163593615 53.3314687.163593615 53.8689176.163593615 54.3236821.613476055 54.3236821 1.1451553L54.3236821 15.7867838 63.4189713 15.7867838C63.915078 15.7867838 64.3285003 16.1957679 64.3285003 16.6865487 64.3285003 17.1773295 63.915078 17.5863136 63.4189713 17.5863136L53.3314687 17.5863136C52.7940198 17.5863136 52.3392554 17.1364311 52.3392554 16.6047519L52.3392554 1.1451553zM67.5531937 2.08581859L62.4681002 2.08581859C61.9719935 2.08581859 61.5585713 1.67683455 61.5585713 1.18605371 61.5585713.695272863 61.9719935.286288826 62.4681002.286288826L74.622714.286288826C75.1188207.286288826 75.5322429.695272863 75.5322429 1.18605371 75.5322429 1.67683455 75.1188207 2.08581859 74.622714 2.08581859L69.5376205 2.08581859 69.5376205 16.7274471C69.5376205 17.2591264 69.082856 17.7090088 68.5454071 17.7090088 68.0079582 17.7090088 67.5531937 17.2591264 67.5531937 16.7274471L67.5531937 2.08581859zM78.0127764 1.1451553C78.0127764.613476055 78.4675408.163593615 79.0049897.163593615 79.5424386.163593615 79.9972031.613476055 79.9972031 1.1451553L79.9972031 7.97518872 90.0847057 7.97518872 90.0847057 1.1451553C90.0847057.613476055 90.5394702.163593615 91.0769191.163593615 91.614368.163593615 92.0691325.613476055 92.0691325 1.1451553L92.0691325 16.7274471C92.0691325 17.2591264 91.614368 17.7090088 91.0769191 17.7090088 90.5394702 17.7090088 90.0847057 17.2591264 90.0847057 16.7274471L90.0847057 9.81561689 79.9972031 9.81561689 79.9972031 16.7274471C79.9972031 17.2591264 79.5424386 17.7090088 79.0049897 17.7090088 78.4675408 17.7090088 78.0127764 17.2591264 78.0127764 16.7274471L78.0127764 1.1451553 78.0127764 1.1451553zM94.8804037 8.99764881L94.8804037 8.95675041C94.8804037 4.04894197 98.6012038 0 103.72764 0 106.538911 0 108.357969.899764881 109.970315 2.2494122 110.177026 2.41300582 110.383738 2.69929464 110.383738 3.02648187 110.383738 3.55816112 109.928973 4.00804356 109.391524 4.00804356 109.102129 4.00804356 108.895418 3.88534835 108.730049 3.80355154 107.365755 2.61749784 105.836093 1.84042817 103.686297 1.84042817 99.8001283 1.84042817 96.9061726 4.94870685 96.9061726 8.95675041L96.9061726 8.99764881C96.9061726 13.0056924 99.8414705 16.1548695 103.686297 16.1548695 105.877435 16.1548695 107.407097 15.4186982 108.895418 14.0690509 109.060786 13.9054573 109.267498 13.782762 109.515551 13.782762 110.011658 13.782762 110.466422 14.2326445 110.466422 14.7234253 110.466422 15.0097142 110.301053 15.2551046 110.135684 15.4186982 108.399311 16.9728375 106.497569 17.9543992 103.644955 17.9543992 98.6012038 17.8726024 94.8804037 13.9463557 94.8804037 8.99764881zM112.161453 16.3184631L119.272316.940663285C119.520369.408984037 119.892449.0817968074 120.512582.0817968074L120.595267.0817968074C121.2154.0817968074 121.58748.408984037 121.835534.940663285L128.946396 16.2775647C129.029081 16.4411583 129.070423 16.6047519 129.070423 16.7683455 129.070423 17.3000248 128.657001 17.7090088 128.119552 17.7090088 127.664787 17.7090088 127.334049 17.3818216 127.127338 16.9728375L125.30828 13.0056924 115.716884 13.0056924 113.897827 17.0546343C113.732458 17.4636184 113.40172 17.7090088 112.946955 17.7090088 112.450849 17.7090088 112.037427 17.3000248 112.037427 16.8092439 112.037427 16.6865487 112.037427 16.4820567 112.161453 16.3184631zM124.522778 11.247061L120.512582 2.37210741 116.502387 11.247061 124.522778 11.247061zM131.468272 1.26785051C131.468272.736171266 131.923036.286288826 132.460485.286288826L138.992556.286288826C141.142352.286288826 142.878726.940663285 143.953623 2.00402178 144.82181 2.86288826 145.317917 4.04894197 145.317917 5.39858929L145.317917 5.43948769C145.317917 8.30237595 143.374832 9.9383121 140.646245 10.4699913L144.987179 15.9912758C145.19389 16.1957679 145.317917 16.4411583 145.317917 16.7274471 145.317917 17.2591264 144.82181 17.7090088 144.325703 17.7090088 143.912281 17.7090088 143.622886 17.5045168 143.416174 17.1773295L138.49645 10.838077 133.452698 10.838077 133.452698 16.6865487C133.452698 17.218228 132.997934 17.6681104 132.460485 17.6681104 131.923036 17.6681104 131.468272 17.218228 131.468272 16.6865487L131.468272 1.26785051 131.468272 1.26785051zM138.785845 9.12034402C141.431748 9.12034402 143.292148 7.7706967 143.292148 5.5621829L143.292148 5.5212845C143.292148 3.39456751 141.638459 2.12671699 138.827188 2.12671699L133.411356 2.12671699 133.411356 9.16124243 138.785845 9.16124243 138.785845 9.12034402zM148.129188 16.6047519L148.129188 1.26785051C148.129188.736171266 148.583952.286288826 149.121401.286288826L159.994406.286288826C160.490513.286288826 160.903935.695272863 160.903935 1.18605371 160.903935 1.67683455 160.490513 2.08581859 159.994406 2.08581859L150.113615 2.08581859 150.113615 8.01608712 158.878166 8.01608712C159.374273 8.01608712 159.787695 8.42507116 159.787695 8.915852 159.787695 9.40663285 159.374273 9.81561689 158.878166 9.81561689L150.113615 9.81561689 150.113615 15.8685806 160.118433 15.8685806C160.61454 15.8685806 161.027962 16.2775647 161.027962 16.7683455 161.027962 17.2591264 160.61454 17.6681104 160.118433 17.6681104L149.121401 17.6681104C148.583952 17.5863136 148.129188 17.1364311 148.129188 16.6047519z" transform="translate(0 29.447)"/>
    </g>
    <g transform="translate(0 19.631)">
      <path d="M52.8767043,24.9071278 C52.0085176,20.8172875 50.5615397,17.2591264 48.3704019,13.9054573 C46.2206062,10.5108897 43.2026239,7.85249351 39.6885349,6.42104938 C36.1744458,4.98960525 32.2469346,4.66241802 28.3194233,5.03050365 C24.4332543,5.39858929 20.6711119,6.54374459 17.4877607,8.58866477 C10.9556893,12.5149115 6.61475581,19.8766242 5.62254244,27.4837273 C5.49851577,28.4243906 5.45717354,29.3650538 5.41583132,30.3466155 C5.41583132,31.3281772 5.45717354,32.3097389 5.53985799,33.2913006 C5.70522689,35.254424 5.99462245,37.2175474 6.44938692,39.1397723 C7.31757362,42.9842223 8.8472359,46.705977 10.9556893,49.9778493 C13.0641427,53.29062 15.8340717,56.1126099 19.1001074,58.2802253 C20.7537964,59.3435838 22.4901698,60.2433486 24.3505698,60.9795199 C26.2523121,61.7156912 28.1540544,62.3700656 30.1384812,62.8199481 C34.0659924,63.7197129 38.1175304,64.0877986 42.1277261,63.6788145 C46.1379218,63.2698305 50.1067753,62.2473704 53.9102599,60.6523327 C55.8120022,59.875263 57.6724022,58.9754981 59.4914601,57.9939364 C61.3518602,56.9714763 63.0468913,55.9899147 64.5765536,54.6811657 C67.7599048,52.1454647 70.4471494,48.9553892 72.6796295,45.5199233 C74.9121096,42.043559 76.7311674,38.2809059 78.0127764,34.3137607 C79.2530431,30.3875139 79.8731764,27.7700161 79.9558609,24.9480263 L79.9558609,24.9480263 C80.5759942,26.5839624 79.9145186,32.5960277 79.2117008,34.6818463 C78.136803,38.8125851 76.4831141,42.8206287 74.3746607,46.5423834 C72.2662072,50.2641381 69.6203049,53.7814009 66.312927,56.7260859 C64.7005803,58.1984284 62.7574958,59.466279 60.9384379,60.5705359 C59.0780378,61.6747928 57.1762955,62.7381513 55.1505266,63.6379161 C51.1816731,65.4783443 46.923424,66.8279916 42.4998061,67.3596709 C38.0761881,67.9322485 33.5285435,67.6868581 29.18761,66.7870932 C26.9964722,66.3372108 24.8880187,65.6828363 22.7795653,64.9466651 C20.6711119,64.1695954 18.5626585,63.1880337 16.6609162,61.9610816 C12.8160894,59.5480758 9.50871148,56.2353051 6.98683583,52.5135503 C4.46496017,48.7508972 2.68724455,44.57926 1.61234673,40.2440292 C1.07489782,38.0764138 0.702817805,35.8679 0.53744891,33.6593862 C0.454764462,32.5551293 0.372080014,31.409974 0.413422238,30.3057171 C0.413422238,29.1605618 0.454764462,28.0154065 0.620133357,26.8702512 C1.19892449,22.3305284 2.72858677,17.9543992 5.12643575,14.0281525 C7.48294251,10.1019057 10.7903204,6.6664398 14.7591739,4.21253558 C18.7693696,1.79952976 23.3996987,0.408984037 27.9886855,0.204492018 C30.3038501,0.122695211 32.5363301,0.204492018 34.8514947,0.572577652 C37.1666592,0.940663285 39.3991393,1.67683455 41.5075927,2.78109145 C43.5747039,3.88534835 45.4764462,5.27589408 47.0474507,6.99362703 C48.577113,8.71135999 49.8173797,10.633585 50.7682509,12.6376067 C52.5459665,16.6865487 53.0420732,20.6127955 52.8767043,24.9071278 L52.8767043,24.9071278 Z" opacity=".7"/>
      <path d="M52.8767043,24.9071278 C52.0085176,20.8172875 50.5615397,17.2591264 48.3704019,13.9054573 C46.2206062,10.5108897 43.2026239,7.85249351 39.6885349,6.42104938 C36.1744458,4.98960525 32.2469346,4.66241802 28.3194233,5.03050365 C24.4332543,5.39858929 20.6711119,6.54374459 17.4877607,8.58866477 C10.9556893,12.5149115 6.61475581,19.8766242 5.62254244,27.4837273 C5.49851577,28.4243906 5.45717354,29.3650538 5.41583132,30.3466155 C5.41583132,31.3281772 5.45717354,32.3097389 5.53985799,33.2913006 C5.70522689,35.254424 5.99462245,37.2175474 6.44938692,39.1397723 C7.31757362,42.9842223 8.8472359,46.705977 10.9556893,49.9778493 C13.0641427,53.29062 15.8340717,56.1126099 19.1001074,58.2802253 C20.7537964,59.3435838 22.4901698,60.2433486 24.3505698,60.9795199 C26.2523121,61.7156912 28.1540544,62.3700656 30.1384812,62.8199481 C34.0659924,63.7197129 38.1175304,64.0877986 42.1277261,63.6788145 C46.1379218,63.2698305 50.1067753,62.2473704 53.9102599,60.6523327 C55.8120022,59.875263 57.6724022,58.9754981 59.4914601,57.9939364 C61.3518602,56.9714763 63.0468913,55.9899147 64.5765536,54.6811657 C67.7599048,52.1454647 70.4471494,48.9553892 72.6796295,45.5199233 C74.9121096,42.043559 76.7311674,38.2809059 78.0127764,34.3137607 C79.2530431,30.3875139 79.8731764,27.7700161 79.9558609,24.9480263 L79.9558609,24.9480263 C80.5759942,26.5839624 79.9145186,32.5960277 79.2117008,34.6818463 C78.136803,38.8125851 76.4831141,42.8206287 74.3746607,46.5423834 C72.2662072,50.2641381 69.6203049,53.7814009 66.312927,56.7260859 C64.7005803,58.1984284 62.7574958,59.466279 60.9384379,60.5705359 C59.0780378,61.6747928 57.1762955,62.7381513 55.1505266,63.6379161 C51.1816731,65.4783443 46.923424,66.8279916 42.4998061,67.3596709 C38.0761881,67.9322485 33.5285435,67.6868581 29.18761,66.7870932 C26.9964722,66.3372108 24.8880187,65.6828363 22.7795653,64.9466651 C20.6711119,64.1695954 18.5626585,63.1880337 16.6609162,61.9610816 C12.8160894,59.5480758 9.50871148,56.2353051 6.98683583,52.5135503 C4.46496017,48.7508972 2.68724455,44.57926 1.61234673,40.2440292 C1.07489782,38.0764138 0.702817805,35.8679 0.53744891,33.6593862 C0.454764462,32.5551293 0.372080014,31.409974 0.413422238,30.3057171 C0.413422238,29.1605618 0.454764462,28.0154065 0.620133357,26.8702512 C1.19892449,22.3305284 2.72858677,17.9543992 5.12643575,14.0281525 C7.48294251,10.1019057 10.7903204,6.6664398 14.7591739,4.21253558 C18.7693696,1.79952976 23.3996987,0.408984037 27.9886855,0.204492018 C30.3038501,0.122695211 32.5363301,0.204492018 34.8514947,0.572577652 C37.1666592,0.940663285 39.3991393,1.67683455 41.5075927,2.78109145 C43.5747039,3.88534835 45.4764462,5.27589408 47.0474507,6.99362703 C48.577113,8.71135999 49.8173797,10.633585 50.7682509,12.6376067 C52.5459665,16.6865487 53.0420732,20.6127955 52.8767043,24.9071278 L52.8767043,24.9071278 Z" opacity=".4"/>
    </g>
  </g>
</svg>
