<svg xmlns="http://www.w3.org/2000/svg" width="270" height="89" viewBox="0 0 270 89">
  <g fill="none" fill-rule="evenodd">
    <path fill="#3B5968" d="M.862619808 30.3012452C.862619808 29.7665299 1.30474015 29.3290735 1.82068783 29.3290735 2.361104 29.3290735 2.80280247 29.7665299 2.80280247 30.3012452L2.80280247 37.0075189 12.7243541 37.0075189 12.7243541 30.3012452C12.7243541 29.7665299 13.1664744 29.3290735 13.7064687 29.3290735 14.2224164 29.3290735 14.6645367 29.7665299 14.6645367 30.3012452L14.6645367 45.6097153C14.6645367 46.1440132 14.2224164 46.5814696 13.7064687 46.5814696 13.1664744 46.5814696 12.7243541 46.1440132 12.7243541 45.6097153L12.7243541 38.8057653 2.80280247 38.8057653 2.80280247 45.6097153C2.80280247 46.1440132 2.361104 46.5814696 1.82068783 46.5814696 1.30474015 46.5814696.862619808 46.1440132.862619808 45.6097153L.862619808 30.3012452zM18.9776358 45.5958362L18.9776358 30.3151303C18.9776358 29.7727779 19.3998099 29.3290735 19.8924806 29.3290735L30.0931419 29.3290735C30.5620452 29.3290735 30.9370873 29.7236656 30.9370873 30.2164823 30.9370873 30.7097224 30.5620452 31.1038911 30.0931419 31.1038911L20.8302873 31.1038911 20.8302873 36.9944059 29.0381094 36.9944059C29.5070127 36.9944059 29.8820548 37.4131308 29.8820548 37.8813914 29.8820548 38.3742081 29.5070127 38.7688002 29.0381094 38.7688002L20.8302873 38.7688002 20.8302873 44.8070754 30.2103677 44.8070754C30.679271 44.8070754 31.0543131 45.2012441 31.0543131 45.6940608 31.0543131 46.1868776 30.679271 46.5814696 30.2103677 46.5814696L19.8924806 46.5814696C19.3998099 46.5814696 18.9776358 46.1377652 18.9776358 45.5958362M44.8132753 40.2416661L40.9384712 31.5790969 37.0636671 40.2416661 44.8132753 40.2416661zM32.8998651 45.2022756L39.7349336 30.1757939C39.9755584 29.6433202 40.3364957 29.3290735 40.9384712 29.3290735L41.0343904 29.3290735C41.6123861 29.3290735 41.9968897 29.6433202 42.2139482 30.1757939L49.0490167 45.1781667C49.1213695 45.3473445 49.1693291 45.5165223 49.1693291 45.6620069 49.1693291 46.1703717 48.7604322 46.5814696 48.2547893 46.5814696 47.7975194 46.5814696 47.4845418 46.2668072 47.3162698 45.8794025L45.5595431 41.9837404 36.3173994 41.9837404 34.5602592 45.9284516C34.3919872 46.3395495 34.0790095 46.5814696 33.6457194 46.5814696 33.1644698 46.5814696 32.7795527 46.1940649 32.7795527 45.7102247 32.7795527 45.5651557 32.8035325 45.3955623 32.8998651 45.2022756L32.8998651 45.2022756zM51.7571885 30.3081386C51.7571885 29.7696317 52.1795393 29.3290735 52.6724161 29.3290735 53.1882644 29.3290735 53.6106152 29.7696317 53.6106152 30.3081386L53.6106152 44.7952749 62.1265445 44.7952749C62.596047 44.7952749 62.971246 45.2110308 62.971246 45.7003531 62.971246 46.1896755 62.596047 46.5814696 62.1265445 46.5814696L52.6724161 46.5814696C52.1795393 46.5814696 51.7571885 46.1409114 51.7571885 45.602825L51.7571885 30.3081386zM68.5166591 31.1156886L63.8262184 31.1156886C63.3641999 31.1156886 62.971246 30.7238944 62.971246 30.2345721 62.971246 29.7452497 63.3641999 29.3290735 63.8262184 29.3290735L75.0559676 29.3290735C75.5179862 29.3290735 75.9105431 29.7452497 75.9105431 30.2345721 75.9105431 30.7238944 75.5179862 31.1156886 75.0559676 31.1156886L70.3651301 31.1156886 70.3651301 45.602825C70.3651301 46.1409114 69.9491546 46.5814696 69.4406961 46.5814696 68.9326345 46.5814696 68.5166591 46.1409114 68.5166591 45.602825L68.5166591 31.1156886zM78.4984026 30.3012452C78.4984026 29.7665299 78.9405229 29.3290735 79.4564706 29.3290735 79.9968868 29.3290735 80.4385852 29.7665299 80.4385852 30.3012452L80.4385852 37.0075189 90.3601368 37.0075189 90.3601368 30.3012452C90.3601368 29.7665299 90.8022572 29.3290735 91.3422515 29.3290735 91.8581992 29.3290735 92.3003195 29.7665299 92.3003195 30.3012452L92.3003195 45.6097153C92.3003195 46.1440132 91.8581992 46.5814696 91.3422515 46.5814696 90.8022572 46.5814696 90.3601368 46.1440132 90.3601368 45.6097153L90.3601368 38.8057653 80.4385852 38.8057653 80.4385852 45.6097153C80.4385852 46.1440132 79.9968868 46.5814696 79.4564706 46.5814696 78.9405229 46.5814696 78.4984026 46.1440132 78.4984026 45.6097153L78.4984026 30.3012452zM96.6134185 38.0029618L96.6134185 37.9554762C96.6134185 33.2368057 100.09173 29.3290735 104.932541 29.3290735 107.588507 29.3290735 109.280429 30.2108308 110.80764 31.4974432 110.995766 31.6644613 111.183892 31.9264505 111.183892 32.2600773 111.183892 32.7603129 110.737396 33.1893202 110.24407 33.1893202 109.985296 33.1893202 109.774159 33.070197 109.632863 32.9748165 108.363618 31.8310701 106.93047 31.0688453 104.909529 31.0688453 101.266507 31.0688453 98.5402963 34.0710774 98.5402963 37.9075813L98.5402963 37.9554762C98.5402963 41.8153136 101.290326 44.8421072 104.909529 44.8421072 106.953885 44.8421072 108.387437 44.127368 109.79717 42.8166034 109.938466 42.6733281 110.149603 42.5542049 110.384963 42.5542049 110.854874 42.5542049 111.277955 42.9832121 111.277955 43.459705 111.277955 43.7458462 111.137063 43.9840926 110.972352 44.127368 109.351078 45.628484 107.564689 46.5814696 104.862296 46.5814696 100.115144 46.5814696 96.6134185 42.7924513 96.6134185 38.0029618M125.036917 40.2416661L121.162113 31.5790969 117.287309 40.2416661 125.036917 40.2416661zM113.123507 45.2022756L119.958576 30.1757939C120.199201 29.6433202 120.560138 29.3290735 121.162113 29.3290735L121.258033 29.3290735C121.836028 29.3290735 122.220532 29.6433202 122.43759 30.1757939L129.272659 45.1781667C129.345012 45.3473445 129.392971 45.5165223 129.392971 45.6620069 129.392971 46.1703717 128.984074 46.5814696 128.478431 46.5814696 128.021162 46.5814696 127.708184 46.2668072 127.539912 45.8794025L125.783185 41.9837404 116.541042 41.9837404 114.783901 45.9284516C114.615629 46.3395495 114.302652 46.5814696 113.869362 46.5814696 113.388112 46.5814696 113.003195 46.1940649 113.003195 45.7102247 113.003195 45.5651557 113.027175 45.3955623 113.123507 45.2022756L113.123507 45.2022756zM138.847284 38.0654111C141.299532 38.0654111 143.051653 36.7437363 143.051653 34.5413654L143.051653 34.4926013C143.051653 32.3881789 141.510172 31.1156886 138.870956 31.1156886L133.825633 31.1156886 133.825633 38.0654111 138.847284 38.0654111zM131.980831 30.3081386C131.980831 29.7696317 132.401308 29.3290735 132.891597 29.3290735L139.010981 29.3290735C141.019481 29.3290735 142.631176 29.9651085 143.658697 31.0421221 144.453109 31.8740541 144.920128 33.0733984 144.920128 34.4190348L144.920128 34.4677989C144.920128 37.2822431 143.098195 38.9217252 140.552463 39.43585L144.616405 44.9176055C144.803373 45.1374643 144.920128 45.3581638 144.920128 45.6267866 144.920128 46.1409114 144.453109 46.5814696 143.986091 46.5814696 143.612155 46.5814696 143.331704 46.3611905 143.121465 46.0673449L138.520692 39.8028418 133.825633 39.8028418 133.825633 45.602825C133.825633 46.1409114 133.405558 46.5814696 132.891597 46.5814696 132.401308 46.5814696 131.980831 46.1409114 131.980831 45.602825L131.980831 30.3081386zM148.370607 45.5958362L148.370607 30.3151303C148.370607 29.7727779 148.792781 29.3290735 149.285452 29.3290735L159.486113 29.3290735C159.955016 29.3290735 160.330059 29.7236656 160.330059 30.2164823 160.330059 30.7097224 159.955016 31.1038911 159.486113 31.1038911L150.223259 31.1038911 150.223259 36.9944059 158.431081 36.9944059C158.899984 36.9944059 159.275026 37.4131308 159.275026 37.8813914 159.275026 38.3742081 158.899984 38.7688002 158.431081 38.7688002L150.223259 38.7688002 150.223259 44.8070754 159.603339 44.8070754C160.072242 44.8070754 160.447284 45.2012441 160.447284 45.6940608 160.447284 46.1868776 160.072242 46.5814696 159.603339 46.5814696L149.285452 46.5814696C148.792781 46.5814696 148.370607 46.1377652 148.370607 45.5958362M-1.77635684e-15 1.9270655C-1.77635684e-15.853149014.883274863 1.42108547e-14 2.02872614 1.42108547e-14 3.14109126 1.42108547e-14 4.02436613.853149014 4.02436613 1.9270655L4.02436613 9.3502706 14.9528508 9.3502706 14.9528508 1.9270655C14.9528508.853149014 15.8365445 1.42108547e-14 16.9489096 1.42108547e-14 18.0939421 1.42108547e-14 18.9776358.853149014 18.9776358 1.9270655L18.9776358 20.5014539C18.9776358 21.5753703 18.0939421 22.428115 16.9489096 22.428115 15.8365445 22.428115 14.9528508 21.5753703 14.9528508 20.5014539L14.9528508 12.9516916 4.02436613 12.9516916 4.02436613 20.5014539C4.02436613 21.5753703 3.14109126 22.428115 2.02872614 22.428115.883274863 22.428115-1.77635684e-15 21.5753703-1.77635684e-15 20.5014539L-1.77635684e-15 1.9270655zM23.2907348 1.97250788C23.2907348.859205539 24.1761513 1.42108547e-14 25.3243798 1.42108547e-14L38.7063852 1.42108547e-14C39.7232077 1.42108547e-14 40.543131.795274132 40.543131 1.78152807 40.543131 2.76778201 39.7232077 3.56305615 38.7063852 3.56305615L27.3248584 3.56305615 27.3248584 9.63939029 37.2302713 9.63939029C38.2470937 9.63939029 39.0670171 10.4346644 39.0670171 11.4209184 39.0670171 12.4071723 38.2470937 13.2024464 37.2302713 13.2024464L27.3248584 13.2024464 27.3248584 20.4877764C27.3248584 21.5693167 26.439442 22.428115 25.3243798 22.428115 24.1761513 22.428115 23.2907348 21.5693167 23.2907348 20.4877764L23.2907348 1.97250788zM43.9936102 1.9270655C43.9936102.853149014 44.8768851 1.42108547e-14 46.0223364 1.42108547e-14 47.1347015 1.42108547e-14 48.0179763.853149014 48.0179763 1.9270655L48.0179763 9.3502706 58.9464611 9.3502706 58.9464611 1.9270655C58.9464611.853149014 59.8301547 1.42108547e-14 60.9425199 1.42108547e-14 62.0875523 1.42108547e-14 62.971246.853149014 62.971246 1.9270655L62.971246 20.5014539C62.971246 21.5753703 62.0875523 22.428115 60.9425199 22.428115 59.8301547 22.428115 58.9464611 21.5753703 58.9464611 20.5014539L58.9464611 12.9516916 48.0179763 12.9516916 48.0179763 20.5014539C48.0179763 21.5753703 47.1347015 22.428115 46.0223364 22.428115 44.8768851 22.428115 43.9936102 21.5753703 43.9936102 20.5014539L43.9936102 1.9270655zM67.284345 11.7096041L67.284345 11.6453674C67.284345 5.24352423 71.9768503 1.24344979e-14 78.6530183 1.24344979e-14 82.0543892 1.24344979e-14 84.2903936 1.02943384 86.2111725 2.5410545 86.6207237 2.86306141 86.9669879 3.40989666 86.9669879 4.11773537 86.9669879 5.21140589 86.1168467 6.04771794 85.046209 6.04771794 84.510487 6.04771794 84.1327809 5.85459616 83.8808424 5.66147437 82.3692116 4.40721217 80.7314099 3.63513679 78.6215764 3.63513679 74.4329481 3.63513679 71.3468026 7.1735068 71.3468026 11.5811307L71.3468026 11.6453674C71.3468026 16.0525796 74.4015062 19.6234797 78.6215764 19.6234797 80.9519065 19.6234797 82.5268243 18.8514043 84.1327809 17.4678452 84.4161613 17.2104868 84.8257125 17.0177768 85.2981475 17.0177768 86.2740564 17.0177768 87.1246006 17.8540888 87.1246006 18.8514043 87.1246006 19.4624762 86.8412202 19.9450748 86.4945529 20.26667 84.4161613 22.1324159 82.0543892 23.2907348 78.4954056 23.2907348 72.0711761 23.2907348 67.284345 18.1756839 67.284345 11.7096041" transform="translate(109.553 20.483)"/>
    <g transform="translate(0 .643)">
      <path fill="#E15128" d="M52.3233643,43.7208358 C51.4556222,39.6888551 49.8211538,35.8075154 47.6422765,32.4962564 C45.4894812,29.1703798 42.5144836,26.5489833 39.0344072,25.1193153 C35.5514327,23.6945197 31.6416252,23.3875532 27.7330597,23.7635465 C23.8716901,24.1228923 20.1461122,25.2334126 16.9521091,27.2445305 C10.4813031,31.1222158 6.16080851,38.3647575 5.17217866,45.8350879 C5.04632293,46.7746653 4.99043305,47.6821654 4.98670706,48.6392025 C4.97428709,49.6047665 5.02272498,50.5747969 5.09144884,51.5423911 C5.2479405,53.4775794 5.54560585,55.4074891 5.98941289,57.3032915 C6.87040298,61.0936782 8.35500375,64.7533199 10.4668132,67.99474 C12.5641326,71.2467172 15.3226086,74.0488016 18.5737436,76.1610235 C20.201174,77.2179465 21.9366583,78.1071749 23.7748143,78.8201818 C25.6523002,79.5319705 27.5591801,80.1702659 29.5103578,80.6185345 C33.4052614,81.5240045 37.4367846,81.8695448 41.429392,81.4606622 C45.4157893,81.0436587 49.3748627,80.0655075 53.1381146,78.4953495 C55.0346445,77.7486413 56.8661765,76.8261176 58.6799066,75.8682684 C60.5101966,74.868191 62.1922749,73.8827311 63.7489116,72.6008617 C66.8928207,70.1065559 69.5784329,66.9812633 71.8069901,63.5713364 C74.0413432,60.1581612 75.8422393,56.4432981 77.1094906,52.5534315 C78.3473479,48.6696556 79.3554357,44.5629635 79.0258924,40.4509929 C79.665521,44.5869199 79.3707537,48.8357261 78.302222,52.8888209 C77.2361743,56.9565331 75.6116418,60.8849735 73.4973484,64.5677594 C71.384297,68.2472971 68.7694787,71.7018884 65.5079937,74.6144158 C63.8991932,76.0842819 61.9848614,77.3052452 60.1744433,78.3918092 C58.3176573,79.4722826 56.4281654,80.5210848 54.4409698,81.4001621 C50.5034243,83.2175988 46.2495835,84.5226124 41.8533271,85.0857904 C37.4591406,85.665616 32.9498624,85.4175254 28.6132218,84.538042 C26.4393125,84.1035788 24.3217071,83.4660954 22.2409476,82.7437497 C20.1307942,81.9974475 18.0686647,81.0229507 16.1593008,79.818635 C12.3219431,77.4278694 9.03437628,74.1970063 6.55203767,70.4951365 C4.0494131,66.7997632 2.2965409,62.6760174 1.22345523,58.4199025 C0.673250422,56.291439 0.328389171,54.1174989 0.13960558,51.9281294 C0.0534937672,50.8322265 -0.00612210346,49.7326692 0.000501882166,48.6282395 C-0.00405210795,47.5156889 0.0601177528,46.3523833 0.203775441,45.2390207 C0.76184623,40.753899 2.29902489,36.4608343 4.66171777,32.6083235 C7.01199067,28.7586549 10.2759596,25.3564428 14.248281,22.9595867 C18.2239143,20.5810023 22.8176484,19.2284819 27.3712245,19.0144986 C29.6507035,18.9150187 31.8933367,19.0108443 34.1889617,19.3758745 C36.4705107,19.7315659 38.7214239,20.4656868 40.7860374,21.5425058 C42.8452689,22.6221671 44.7389008,24.019352 46.2694555,25.7044194 C47.7962842,27.390705 49.0254475,29.2767624 49.9706075,31.2513366 C51.7806115,35.2386529 52.487308,39.496798 52.3233643,43.7062183 L52.3233643,43.7208358 Z"/>
      <path fill="#FABA10" d="M71.1609115,21.5654952 C77.1448309,27.2829591 81.5414675,34.8348031 82.5931616,43.2203082 C82.8435452,45.3093502 82.8800249,47.4313963 82.695139,49.5404038 C82.5011332,51.6575605 82.1396522,53.6956701 81.663343,55.7480408 C80.695801,59.8320018 79.1362926,63.8002444 77.0353917,67.4950821 C74.9295164,71.1842154 72.2573761,74.5995362 69.0579379,77.4949395 C65.8597433,80.3887129 62.164927,82.7682731 58.1811746,84.5130123 C54.1870587,86.2434904 49.9695044,87.4112678 45.5591878,87.8399146 C41.1658676,88.2351497 36.6937842,87.8325803 32.4347757,86.6619508 C23.9366566,84.3308782 16.195492,78.9418262 11.5480572,71.3675719 C6.87326267,63.8312113 5.56040692,54.3084884 8.36520074,45.8093023 C9.73692152,41.5700994 12.1379511,37.7122782 15.1972739,34.4778691 C16.7219608,32.8484408 18.4808642,31.4304837 20.4263117,30.2280723 C21.4029735,29.6299226 22.4310387,29.0892246 23.5515468,28.6524286 C24.1352224,28.4250665 24.6720548,28.2657501 25.2005964,28.1145828 C25.7320397,27.9520067 26.272603,27.8159154 26.8235299,27.7079388 C29.0048519,27.2303969 31.2587189,26.996108 33.5105132,27.0918608 C35.7602348,27.2096165 37.9892292,27.6863434 40.0635993,28.4878152 C44.2227032,30.1453582 47.4843227,33.4013626 49.1271542,36.7140038 C46.0325953,33.9807692 43.0192866,31.8925421 39.2233219,31.0169128 C37.3429576,30.5515947 35.4111901,30.4122438 33.5059532,30.5336665 C31.5986437,30.6290119 29.7087449,31.0030592 27.8789548,31.5853181 C27.4179837,31.7140751 26.9682052,31.8868377 26.5163539,32.0551182 C26.0541392,32.2148421 25.6047752,32.3778257 25.2312725,32.5505883 C24.4382529,32.9124118 23.6497933,33.3809896 22.8924244,33.9066117 C21.3673229,34.9537811 19.9902131,36.2653915 18.7059607,37.6434176 C16.1424306,40.4283995 14.2376083,43.7720076 13.0296317,47.3022318 C10.6331622,54.3700147 11.6873435,62.524083 15.6304707,68.9480807 C19.5806452,75.4103795 26.1917673,80.3259642 33.6589194,82.4850891 C41.1397514,84.7285581 49.3170146,83.9971693 56.6564877,81.0263861 C63.9822809,78.0808654 70.2377256,72.7125939 74.4129965,65.9842244 C76.515141,62.6263552 78.0970348,58.9457786 79.218372,55.1225913 C80.3438545,51.2818833 81.0407003,47.3519418 80.749277,43.3869589 C80.4964061,39.425643 79.4061597,35.5054805 77.7198012,31.8407948 C76.0156174,28.1895552 73.9329564,24.5729497 71.1609115,21.5654952"/>
      <path fill="#B1CB34" d="M55.6998313,8.62619808 C64.0191098,10.5678012 71.8688124,14.7254175 77.7644596,20.9852175 C80.7170962,24.1077999 83.0884128,27.7665998 84.7963802,31.7083468 C86.5135549,35.6533462 87.4150403,39.8987736 87.7954721,44.1425749 C87.8967532,45.2060661 87.9695752,46.2711834 87.9641344,47.3363007 C87.9942677,48.4018245 88.0047306,49.4677549 87.9335827,50.5328722 L87.8615978,52.1321742 L87.8436016,52.532203 L87.7946351,52.9818289 L87.6820541,53.7965216 C87.5217621,54.8718023 87.3108296,55.9251301 87.0655787,56.9723599 C86.0657419,61.1482702 84.5356442,65.214823 82.3815378,69.0146899 C80.2496128,72.8194352 77.414161,76.3164348 73.9618153,79.1995691 C70.4697104,82.0306671 66.3707561,84.1970832 62.0131584,85.4447339 C59.8464965,86.1191727 57.614546,86.501314 55.3842696,86.8066206 C54.2668295,86.9216695 53.1485524,87.0009435 52.0269272,87.0810306 L50.323982,87.1070487 L49.4727187,87.1176186 C49.1734791,87.1127402 48.9541763,87.1456694 48.5243595,87.1001376 C43.9043516,86.6358766 39.6066018,85.4187158 35.469981,83.5271163 C31.366423,81.6338906 27.5495491,78.9373551 24.5458535,75.4797892 C23.0350076,73.7642186 21.7380237,71.85961 20.7180981,69.833448 C19.6776652,67.8178558 18.8657424,65.6945323 18.3321334,63.5273031 C17.727795,61.3673916 17.4750108,59.1615418 17.3101152,56.9691077 C17.2954671,55.8751265 17.2259933,54.7787061 17.2632413,53.6879772 L17.3314595,52.0524937 L17.366615,51.2353617 C17.3900519,50.8698883 17.4319036,50.6052351 17.4712442,50.3113115 C17.7838763,48.0461078 18.4576885,45.9199386 19.3135555,43.8311704 C20.194115,41.7602897 21.2960699,39.732908 22.8073344,37.9616423 C24.2788397,36.1728957 26.1253362,34.6357933 28.1898799,33.5056306 C30.2699088,32.3949816 32.5583591,31.7392434 34.8271391,31.4871927 C39.4015286,31.0416322 42.8768927,32.0518675 46.1241652,33.8442729 C41.9080261,33.2600845 39.1692517,33.1564185 35.3193149,34.1495794 C33.3999965,34.6118078 31.6229739,35.4065804 30.0924577,36.4822676 C28.5443637,37.5323432 27.2164097,38.8592679 26.1768138,40.4065337 C24.0423777,43.4445572 22.8219825,47.2273497 22.3524065,50.9300552 C22.326877,51.1491767 22.2963253,51.397162 22.2942327,51.5475793 L22.278329,52.2797458 L22.2444292,53.7424527 C22.22727,54.7169131 22.3130659,55.686495 22.3385955,56.6572966 C22.5411576,58.5781665 22.7675753,60.4961907 23.2601696,62.3353475 C23.7012864,64.1907655 24.3759356,65.9705684 25.2313841,67.6511771 C26.0671623,69.3439819 27.1289396,70.919705 28.3757014,72.3507023 C30.8474621,75.2297713 34.0407459,77.5405066 37.6073467,79.2113586 C41.1538587,80.86351 45.1360468,82.0074947 48.971754,82.4705362 C49.0701055,82.4949282 49.3844116,82.4778538 49.617107,82.4827322 L50.360393,82.4831387 L51.8498946,82.4876106 C52.8488944,82.4290698 53.855846,82.3758139 54.8544272,82.2916615 C56.8381972,82.0493677 58.8182006,81.7497526 60.7165931,81.1891432 C68.4085148,79.1666399 74.8687413,73.915449 78.9149625,67.099918 C80.9698804,63.7126823 82.5033262,59.9831457 83.5425036,56.1381536 C83.7936138,55.1762957 84.0271462,54.2071203 84.2129677,53.2432298 L84.3418709,52.5256985 L84.3912559,52.2065698 L84.4226446,51.8333722 L84.5498738,50.3385492 C84.6582696,49.3425426 84.6884028,48.3428772 84.7005398,47.3411791 C84.7478322,46.3382614 84.7193731,45.339409 84.6641289,44.3413697 C84.3473116,36.3680317 81.6282074,28.4390059 76.3201579,22.1946541 C73.708194,19.0582496 70.5224436,16.3588683 67.0202943,14.1107391 C63.5055896,11.8935064 59.7422858,9.83197591 55.6998313,8.62619808"/>
      <path fill="#8DC8BA" d="M42.5082441,34.3115036 C38.6704209,35.619707 35.4887695,37.8855282 33.5079045,41.0683902 C31.4702315,44.2496291 30.7745412,48.0192349 30.8000635,51.777885 C30.8173529,53.6752668 31.0141221,55.5714312 31.4278315,57.3426185 C31.8160184,59.1357173 32.4273203,60.8647044 33.2605021,62.4800759 C34.9511532,65.6986457 37.4766327,68.4586951 40.5039149,70.6019737 C46.5893531,74.8309114 54.5482154,76.8074184 61.9562885,75.7751389 C63.8021321,75.5109824 65.5998124,75.0512447 67.2871703,74.3667102 L68.6118635,73.780778 C69.0025204,73.6075141 69.4306375,73.3924558 69.8468168,73.1769918 C70.6857617,72.7432234 71.5144154,72.254676 72.3270147,71.7482747 C75.5757651,69.7035983 78.5659987,67.2275881 81.0359053,64.3502711 C83.4922274,61.4664618 85.4290458,58.1785052 86.5816689,54.621523 C87.7351153,51.0661639 88.1727004,47.2803273 87.881663,43.4839406 C87.6128549,39.6867424 86.6866399,35.8980654 85.3323078,32.2380175 C84.9881675,31.3234113 84.6650214,30.3994724 84.2422557,29.5140817 L83.6441266,28.1701705 L83.3448563,27.4978092 L83.2703474,27.3298203 L83.2081881,27.2068719 L83.0472325,26.9074135 C82.1428351,25.2555227 81.0276723,23.6222973 79.828121,22.0888915 C75.0023351,15.9418776 68.43897,11.0170438 60.8563568,8.49599313 C53.2630407,5.96358086 44.8546553,5.79153427 36.8517463,7.40568841 C40.7990687,6.28292207 44.8521854,5.31434843 49.0172712,5.20154429 C53.1724774,5.06317663 57.3844914,5.47625076 61.4540742,6.55113621 C63.4851607,7.10054916 65.4767287,7.80334327 67.4127238,8.64612813 C69.3326646,9.51893998 71.2085586,10.5049617 72.9807166,11.6557262 C76.5114481,13.9763264 79.7013324,16.7952125 82.4523967,19.99674 C83.8293696,21.6048075 85.0980783,23.2790157 86.2297072,25.1358204 L86.4417075,25.4985791 L86.5577931,25.7120142 L86.6434165,25.8881185 L86.9854986,26.5933473 L87.6696627,28.005022 C88.1492363,28.9362648 88.5304252,29.9129539 88.9301384,30.8815275 C90.5084087,34.7598798 91.6688531,38.8687095 92.1101431,43.1297032 C92.3558988,45.2563452 92.3406677,47.4195065 92.1937083,49.5761755 C91.9520691,51.7259464 91.6013424,53.8813981 90.9336443,55.9585361 C89.6702871,60.1326949 87.4827731,64.0082067 84.7329438,67.3598692 C81.9592387,70.7013874 78.6734396,73.5726178 75.0290925,75.9017392 C74.1131688,76.4807734 73.1840722,77.0362729 72.210929,77.5487607 C71.7206526,77.8056133 71.2365509,78.0539447 70.6952297,78.2986242 L69.2169906,78.9616528 C67.1163351,79.8287839 64.9160599,80.4017315 62.7075518,80.731217 C58.2827141,81.3853186 53.8047735,81.1118295 49.5141341,80.1067365 C47.3677853,79.5991179 45.2634249,78.9076854 43.2397481,78.0129619 C41.2275975,77.0947038 39.2977772,75.9820817 37.4996852,74.672661 C33.9076177,72.0704563 30.8185878,68.6047724 28.9776841,64.5060869 C28.046941,62.4707432 27.4047653,60.3189434 27.0441589,58.1407686 C26.8473897,57.0508697 26.8054013,55.9508264 26.742007,54.8588986 C26.7370672,53.7836074 26.7535332,52.7111566 26.8391567,51.633025 C27.1244309,47.3501198 28.5709728,42.9308757 31.4372994,39.5706921 C34.2974513,36.2259278 38.9429339,34.2559131 42.5082441,34.3115036"/>
      <path fill="#34BBD9" d="M17.2523962,16.8699828 C22.0578425,11.0580479 28.224178,6.31234878 35.3305389,3.30327551 C38.8841324,1.79550418 42.6772754,0.789918955 46.5550868,0.294202234 C50.4465278,-0.184532347 54.3821615,-0.0543359492 58.2570817,0.506074634 C65.9924667,1.65600804 73.5262997,4.74230961 79.6426602,9.74597553 C85.7693461,14.69263 90.3843918,21.6573286 92.1578845,29.3704543 C92.5919647,31.2926707 92.9087484,33.2403603 93.05,35.20018 C93.1082353,35.686597 93.100388,36.1887831 93.125995,36.6832868 C93.1321902,37.2081158 93.1867084,37.6108351 93.150776,38.2367482 C93.100388,39.2467811 93.0049812,40.2107197 92.8839674,41.1811276 C92.3850435,45.0425425 91.4549305,48.8465416 89.9697233,52.5086186 C88.4684086,56.1504787 86.4086956,59.6641641 83.605966,62.6489771 C80.8404079,65.6495593 77.2967268,68.0444453 73.4288278,69.5105699 C69.5733193,70.9758859 65.3828544,71.6062467 61.4472207,71.5973513 C57.2224755,71.5419572 53.2831247,70.7510747 49.4350505,69.2687766 C45.6365383,67.7541316 42.1035956,65.3778451 39.4132065,62.2640487 C36.7331428,59.130844 35.0492747,55.337762 34.1840053,51.5151634 L34.2244809,51.6429338 C33.7350564,49.8323143 33.5921527,48.2109244 33.599587,46.4815766 C33.6140426,44.7785107 33.9031541,43.0738274 34.4462707,41.4585025 C34.9790619,39.8391343 35.8224415,38.3265109 36.9049576,37.03789 C37.9726051,35.7355217 39.5123304,34.9883076 40.8628942,34.3502644 C39.6808411,35.4278215 38.7379246,36.4386631 37.9742572,37.7547789 C37.2262844,39.0842378 36.7319037,40.5107374 36.4663342,41.964732 C36.1970474,43.4223656 36.2127421,44.9115374 36.3490375,46.3744274 C36.4981364,47.8102268 36.8529175,49.3519624 37.3448201,50.5653767 L37.3852957,50.693147 C38.4855715,54.0293287 40.1686136,57.1099695 42.5562616,59.5388197 C44.8926956,62.0133599 47.9006944,63.7948672 51.1523729,64.990895 C54.3722491,66.1986485 58.0100979,66.8431611 61.3716387,66.8290093 C65.0189869,66.8492262 68.4495015,66.3146931 71.6863114,65.123113 C74.8946231,63.9230419 77.7816081,62.0028472 80.1134989,59.5068771 C82.4718228,57.0303152 84.2824869,54.0139639 85.6363548,50.7873575 C87.0133516,47.5664118 87.9306612,44.1036728 88.4436276,40.6065652 C88.5683585,39.7364328 88.6703736,38.8521485 88.7277829,38.0074893 C88.7604112,37.7062585 88.7207616,37.1802165 88.7220007,36.7770929 C88.706306,36.3440484 88.7261308,35.9154515 88.67946,35.4775549 C88.5852922,33.728799 88.3321131,31.9970252 87.9806361,30.2862768 C86.4933639,23.4586483 82.6824612,17.1607008 77.2343613,12.5011254 C71.8048471,7.82861118 64.9677729,4.67397672 57.7651791,3.30448852 C54.1578935,2.63045934 50.4552011,2.39473108 46.7884411,2.6211596 C43.1212681,2.88963913 39.4673116,3.64170528 35.9781487,4.90363993 C32.4836166,6.14980545 29.1398355,7.84518898 26.0207353,9.88830202 C22.9119605,11.9350541 19.8085549,14.1564796 17.2523962,16.8699828"/>
      <path fill="#E53623" d="M52.3233643,43.7208358 C51.4556222,39.6888551 49.8211538,35.8075154 47.6422765,32.4962564 C45.4894812,29.1703798 42.5144836,26.5489833 39.0344072,25.1193153 C35.5514327,23.6945197 31.6416252,23.3875532 27.7330597,23.7635465 C23.8716901,24.1228923 20.1461122,25.2334126 16.9521091,27.2445305 C10.4813031,31.1222158 6.16080851,38.3647575 5.17217866,45.8350879 C5.04632293,46.7746653 4.99043305,47.6821654 4.98670706,48.6392025 C4.97428709,49.6047665 5.02272498,50.5747969 5.09144884,51.5423911 C5.2479405,53.4775794 5.54560585,55.4074891 5.98941289,57.3032915 C6.87040298,61.0936782 8.35500375,64.7533199 10.4668132,67.99474 C12.5641326,71.2467172 15.3226086,74.0488016 18.5737436,76.1610235 C20.201174,77.2179465 21.9366583,78.1071749 23.7748143,78.8201818 C25.6523002,79.5319705 27.5591801,80.1702659 29.5103578,80.6185345 C33.4052614,81.5240045 37.4367846,81.8695448 41.429392,81.4606622 C45.4157893,81.0436587 49.3748627,80.0655075 53.1381146,78.4953495 C55.0346445,77.7486413 56.8661765,76.8261176 58.6799066,75.8682684 C60.5101966,74.868191 62.1922749,73.8827311 63.7489116,72.6008617 C66.8928207,70.1065559 69.5784329,66.9812633 71.8069901,63.5713364 C74.0413432,60.1581612 75.8422393,56.4432981 77.1094906,52.5534315 C78.3473479,48.6696556 79.3554357,44.5629635 79.0258924,40.4509929 C79.665521,44.5869199 79.3707537,48.8357261 78.302222,52.8888209 C77.2361743,56.9565331 75.6116418,60.8849735 73.4973484,64.5677594 C71.384297,68.2472971 68.7694787,71.7018884 65.5079937,74.6144158 C63.8991932,76.0842819 61.9848614,77.3052452 60.1744433,78.3918092 C58.3176573,79.4722826 56.4281654,80.5210848 54.4409698,81.4001621 C50.5034243,83.2175988 46.2495835,84.5226124 41.8533271,85.0857904 C37.4591406,85.665616 32.9498624,85.4175254 28.6132218,84.538042 C26.4393125,84.1035788 24.3217071,83.4660954 22.2409476,82.7437497 C20.1307942,81.9974475 18.0686647,81.0229507 16.1593008,79.818635 C12.3219431,77.4278694 9.03437628,74.1970063 6.55203767,70.4951365 C4.0494131,66.7997632 2.2965409,62.6760174 1.22345523,58.4199025 C0.673250422,56.291439 0.328389171,54.1174989 0.13960558,51.9281294 C0.0534937672,50.8322265 -0.00612210346,49.7326692 0.000501882166,48.6282395 C-0.00405210795,47.5156889 0.0601177528,46.3523833 0.203775441,45.2390207 C0.76184623,40.753899 2.29902489,36.4608343 4.66171777,32.6083235 C7.01199067,28.7586549 10.2759596,25.3564428 14.248281,22.9595867 C18.2239143,20.5810023 22.8176484,19.2284819 27.3712245,19.0144986 C29.6507035,18.9150187 31.8933367,19.0108443 34.1889617,19.3758745 C36.4705107,19.7315659 38.7214239,20.4656868 40.7860374,21.5425058 C42.8452689,22.6221671 44.7389008,24.019352 46.2694555,25.7044194 C47.7962842,27.390705 49.0254475,29.2767624 49.9706075,31.2513366 C51.7806115,35.2386529 52.487308,39.496798 52.3233643,43.7062183 L52.3233643,43.7208358 Z"/>
      <path fill="#FABA10" d="M71.1609115,21.5654952 C77.1448309,27.2829591 81.5414675,34.8348031 82.5931616,43.2203082 C82.8435452,45.3093502 82.8800249,47.4313963 82.695139,49.5404038 C82.5011332,51.6575605 82.1396522,53.6956701 81.663343,55.7480408 C80.695801,59.8320018 79.1362926,63.8002444 77.0353917,67.4950821 C74.9295164,71.1842154 72.2573761,74.5995362 69.0579379,77.4949395 C65.8597433,80.3887129 62.164927,82.7682731 58.1811746,84.5130123 C54.1870587,86.2434904 49.9695044,87.4112678 45.5591878,87.8399146 C41.1658676,88.2351497 36.6937842,87.8325803 32.4347757,86.6619508 C23.9366566,84.3308782 16.195492,78.9418262 11.5480572,71.3675719 C6.87326267,63.8312113 5.56040692,54.3084884 8.36520074,45.8093023 C9.73692152,41.5700994 12.1379511,37.7122782 15.1972739,34.4778691 C16.7219608,32.8484408 18.4808642,31.4304837 20.4263117,30.2280723 C21.4029735,29.6299226 22.4310387,29.0892246 23.5515468,28.6524286 C24.1352224,28.4250665 24.6720548,28.2657501 25.2005964,28.1145828 C25.7320397,27.9520067 26.272603,27.8159154 26.8235299,27.7079388 C29.0048519,27.2303969 31.2587189,26.996108 33.5105132,27.0918608 C35.7602348,27.2096165 37.9892292,27.6863434 40.0635993,28.4878152 C44.2227032,30.1453582 47.5436023,33.4657411 49.1271542,36.7140038 C46.0325953,33.9807692 43.0192866,31.8925421 39.2233219,31.0169128 C37.3429576,30.5515947 35.4111901,30.4122438 33.5059532,30.5336665 C31.5986437,30.6290119 29.7087449,31.0030592 27.8789548,31.5853181 C27.4179837,31.7140751 26.9682052,31.8868377 26.5163539,32.0551182 C26.0541392,32.2148421 25.6047752,32.3778257 25.2312725,32.5505883 C24.4382529,32.9124118 23.6497933,33.3809896 22.8924244,33.9066117 C21.3673229,34.9537811 19.9902131,36.2653915 18.7059607,37.6434176 C16.1424306,40.4283995 14.2376083,43.7720076 13.0296317,47.3022318 C10.6331622,54.3700147 11.6873435,62.524083 15.6304707,68.9480807 C19.5806452,75.4103795 26.1917673,80.3259642 33.6589194,82.4850891 C41.1397514,84.7285581 49.3170146,83.9971693 56.6564877,81.0263861 C63.9822809,78.0808654 70.2377256,72.7125939 74.4129965,65.9842244 C76.515141,62.6263552 78.0970348,58.9457786 79.218372,55.1225913 C80.3438545,51.2818833 81.0407003,47.3519418 80.749277,43.3869589 C80.4964061,39.425643 79.4061597,35.5054805 77.7198012,31.8407948 C76.0156174,28.1895552 73.9329564,24.5729497 71.1609115,21.5654952"/>
      <path fill="#DBDB02" d="M55.6998313,8.62619808 C64.0191098,10.5678012 71.8688124,14.7254175 77.7644596,20.9852175 C80.7170962,24.1077999 83.0884128,27.7665998 84.7963802,31.7083468 C86.5135549,35.6533462 87.4150403,39.8987736 87.7954721,44.1425749 C87.8967532,45.2060661 87.9695752,46.2711834 87.9641344,47.3363007 C87.9942677,48.4018245 88.0047306,49.4677549 87.9335827,50.5328722 L87.8615978,52.1321742 L87.8436016,52.532203 L87.7946351,52.9818289 L87.6820541,53.7965216 C87.5217621,54.8718023 87.3108296,55.9251301 87.0655787,56.9723599 C86.0657419,61.1482702 84.5356442,65.214823 82.3815378,69.0146899 C80.2496128,72.8194352 77.414161,76.3164348 73.9618153,79.1995691 C70.4697104,82.0306671 66.3707561,84.1970832 62.0131584,85.4447339 C59.8464965,86.1191727 57.614546,86.501314 55.3842696,86.8066206 C54.2668295,86.9216695 53.1485524,87.0009435 52.0269272,87.0810306 L50.323982,87.1070487 L49.4727187,87.1176186 C49.1734791,87.1127402 48.9541763,87.1456694 48.5243595,87.1001376 C43.9043516,86.6358766 39.6066018,85.4187158 35.469981,83.5271163 C31.366423,81.6338906 27.5495491,78.9373551 24.5458535,75.4797892 C23.0350076,73.7642186 21.7380237,71.85961 20.7180981,69.833448 C19.6776652,67.8178558 18.8657424,65.6945323 18.3321334,63.5273031 C17.727795,61.3673916 17.4750108,59.1615418 17.3101152,56.9691077 C17.2954671,55.8751265 17.2259933,54.7787061 17.2632413,53.6879772 L17.3314595,52.0524937 L17.366615,51.2353617 C17.3900519,50.8698883 17.4319036,50.6052351 17.4712442,50.3113115 C17.7838763,48.0461078 18.4576885,45.9199386 19.3135555,43.8311704 C20.194115,41.7602897 21.2960699,39.732908 22.8073344,37.9616423 C24.2788397,36.1728957 26.1253362,34.6357933 28.1898799,33.5056306 C30.2699088,32.3949816 32.5583591,31.7392434 34.8271391,31.4871927 C39.4015286,31.0416322 42.848015,32.0396715 46.1241652,33.8442729 C41.9080261,33.2600845 39.1692517,33.1564185 35.3193149,34.1495794 C33.3999965,34.6118078 31.6229739,35.4065804 30.0924577,36.4822676 C28.5443637,37.5323432 27.2164097,38.8592679 26.1768138,40.4065337 C24.0423777,43.4445572 22.8219825,47.2273497 22.3524065,50.9300552 C22.326877,51.1491767 22.2963253,51.397162 22.2942327,51.5475793 L22.278329,52.2797458 L22.2444292,53.7424527 C22.22727,54.7169131 22.3130659,55.686495 22.3385955,56.6572966 C22.5411576,58.5781665 22.7675753,60.4961907 23.2601696,62.3353475 C23.7012864,64.1907655 24.3759356,65.9705684 25.2313841,67.6511771 C26.0671623,69.3439819 27.1289396,70.919705 28.3757014,72.3507023 C30.8474621,75.2297713 34.0407459,77.5405066 37.6073467,79.2113586 C41.1538587,80.86351 45.1360468,82.0074947 48.971754,82.4705362 C49.0701055,82.4949282 49.3844116,82.4778538 49.617107,82.4827322 L50.360393,82.4831387 L51.8498946,82.4876106 C52.8488944,82.4290698 53.855846,82.3758139 54.8544272,82.2916615 C56.8381972,82.0493677 58.8182006,81.7497526 60.7165931,81.1891432 C68.4085148,79.1666399 74.8687413,73.915449 78.9149625,67.099918 C80.9698804,63.7126823 82.5033262,59.9831457 83.5425036,56.1381536 C83.7936138,55.1762957 84.0271462,54.2071203 84.2129677,53.2432298 L84.3418709,52.5256985 L84.3912559,52.2065698 L84.4226446,51.8333722 L84.5498738,50.3385492 C84.6582696,49.3425426 84.6884028,48.3428772 84.7005398,47.3411791 C84.7478322,46.3382614 84.7193731,45.339409 84.6641289,44.3413697 C84.3473116,36.3680317 81.6282074,28.4390059 76.3201579,22.1946541 C73.708194,19.0582496 70.5224436,16.3588683 67.0202943,14.1107391 C63.5055896,11.8935064 59.7422858,9.83197591 55.6998313,8.62619808"/>
      <path fill="#06A04C" d="M42.5082441,34.3115036 C38.6704209,35.619707 35.4887695,37.8855282 33.5079045,41.0683902 C31.4702315,44.2496291 30.7745412,48.0192349 30.8000635,51.777885 C30.8173529,53.6752668 31.0141221,55.5714312 31.4278315,57.3426185 C31.8160184,59.1357173 32.4273203,60.8647044 33.2605021,62.4800759 C34.9511532,65.6986457 37.4766327,68.4586951 40.5039149,70.6019737 C46.5893531,74.8309114 54.5482154,76.8074184 61.9562885,75.7751389 C63.8021321,75.5109824 65.5998124,75.0512447 67.2871703,74.3667102 L68.6118635,73.780778 C69.0025204,73.6075141 69.4306375,73.3924558 69.8468168,73.1769918 C70.6857617,72.7432234 71.5144154,72.254676 72.3270147,71.7482747 C75.5757651,69.7035983 78.5659987,67.2275881 81.0359053,64.3502711 C83.4922274,61.4664618 85.4290458,58.1785052 86.5816689,54.621523 C87.7351153,51.0661639 88.1727004,47.2803273 87.881663,43.4839406 C87.6128549,39.6867424 86.6866399,35.8980654 85.3323078,32.2380175 C84.9881675,31.3234113 84.6650214,30.3994724 84.2422557,29.5140817 L83.6441266,28.1701705 L83.3448563,27.4978092 L83.2703474,27.3298203 L83.2081881,27.2068719 L83.0472325,26.9074135 C82.1428351,25.2555227 81.0276723,23.6222973 79.828121,22.0888915 C75.0023351,15.9418776 68.43897,11.0170438 60.8563568,8.49599313 C53.2630407,5.96358086 44.8546553,5.79153427 36.8517463,7.40568841 C40.7990687,6.28292207 44.8521854,5.31434843 49.0172712,5.20154429 C53.1724774,5.06317663 57.3844914,5.47625076 61.4540742,6.55113621 C63.4851607,7.10054916 65.4767287,7.80334327 67.4127238,8.64612813 C69.3326646,9.51893998 71.2085586,10.5049617 72.9807166,11.6557262 C76.5114481,13.9763264 79.7013324,16.7952125 82.4523967,19.99674 C83.8293696,21.6048075 85.0980783,23.2790157 86.2297072,25.1358204 L86.4417075,25.4985791 L86.5577931,25.7120142 L86.6434165,25.8881185 L86.9854986,26.5933473 L87.6696627,28.005022 C88.1492363,28.9362648 88.5304252,29.9129539 88.9301384,30.8815275 C90.5084087,34.7598798 91.6688531,38.8687095 92.1101431,43.1297032 C92.3558988,45.2563452 92.3406677,47.4195065 92.1937083,49.5761755 C91.9520691,51.7259464 91.6013424,53.8813981 90.9336443,55.9585361 C89.6702871,60.1326949 87.4827731,64.0082067 84.7329438,67.3598692 C81.9592387,70.7013874 78.6734396,73.5726178 75.0290925,75.9017392 C74.1131688,76.4807734 73.1840722,77.0362729 72.210929,77.5487607 C71.7206526,77.8056133 71.2365509,78.0539447 70.6952297,78.2986242 L69.2169906,78.9616528 C67.1163351,79.8287839 64.9160599,80.4017315 62.7075518,80.731217 C58.2827141,81.3853186 53.8047735,81.1118295 49.5141341,80.1067365 C47.3677853,79.5991179 45.2634249,78.9076854 43.2397481,78.0129619 C41.2275975,77.0947038 39.2977772,75.9820817 37.4996852,74.672661 C33.9076177,72.0704563 30.8185878,68.6047724 28.9776841,64.5060869 C28.046941,62.4707432 27.4047653,60.3189434 27.0441589,58.1407686 C26.8473897,57.0508697 26.8054013,55.9508264 26.742007,54.8588986 C26.7370672,53.7836074 26.7535332,52.7111566 26.8391567,51.633025 C27.1244309,47.3501198 28.5709728,42.9308757 31.4372994,39.5706921 C34.2974513,36.2259278 38.9149416,34.270115 42.5082441,34.3115036"/>
    </g>
  </g>
</svg>
