<svg xmlns="http://www.w3.org/2000/svg" xmlns:xlink="http://www.w3.org/1999/xlink" width="1435" height="165" viewBox="0 0 1435 165">
  <defs>
    <rect id="swoosh_footer-a" width="1435" height="165" x="0" y="0"/>
  </defs>
  <g fill="none" fill-rule="evenodd">
    <mask id="swoosh_footer-b" fill="#fff">
      <use xlink:href="#swoosh_footer-a"/>
    </mask>
    <use fill="#D8D8D8" fill-opacity="0" xlink:href="#swoosh_footer-a"/>
    <g fill-rule="nonzero" mask="url(#swoosh_footer-b)" opacity=".7">
      <g transform="matrix(-1 0 0 1 1450 -1)">
        <path fill="#E04F28" d="M0.405,118.05554 C121.60125,124.078456 242.89875,128.365956 364.2975,131.632623 C394.6725,132.44929 424.94625,133.163873 455.32125,133.878456 L500.7825,134.89929 L523.56375,135.409706 L546.345,135.715956 L637.36875,137.145123 L728.3925,137.96179 C758.7675,138.26804 789.04125,138.26804 819.41625,138.370123 C849.79125,138.472206 880.065,138.57429 910.44,138.26804 L1001.46375,137.757623 L1092.38625,136.328456 C1213.5825,133.98054 1334.77875,129.897206 1455.46875,121.73054 L1457.3925,164.503456 L1411.72875,165.013873 L1366.065,165.626373 C1350.8775,165.932623 1335.58875,165.728456 1320.40125,165.728456 L1274.7375,165.626373 L1251.95625,165.626373 L1240.515,165.626373 C1236.6675,165.626373 1232.92125,165.52429 1229.07375,165.52429 L1183.51125,165.013873 L1137.94875,164.503456 C1122.76125,164.401373 1107.57375,164.095123 1092.38625,163.788873 L1001.26125,161.951373 L910.13625,159.501373 C879.76125,158.78679 849.38625,157.663873 819.1125,156.745123 C788.7375,155.72429 758.46375,154.907623 728.08875,153.682623 L637.065,150.313873 L546.04125,146.638873 L455.0175,142.759706 L409.55625,140.820123 L364.095,138.778456 L318.63375,136.73679 L273.1725,134.59304 L227.71125,132.44929 L182.25,130.203456 L91.125,125.507623 L0.2025,120.913873 L0.405,118.05554 Z"/>
        <path fill="#B2D329" d="M1459.29126,103.324055 L1453.41886,104.033914 L1447.64771,104.642365 L1436.20666,105.859266 L1413.32455,107.988844 C1398.03606,109.307154 1382.84882,110.524055 1367.66158,111.842365 L1321.99861,115.087435 C1306.81137,116.10152 1291.62413,116.912787 1276.33564,117.926872 L1253.55479,119.34659 L1230.77393,120.563492 L1185.21221,122.895886 C1170.02497,123.605745 1154.83773,124.112787 1139.54924,124.822646 L1093.98752,126.647999 L1002.76283,129.284618 L911.538141,131.10997 L888.757282,131.515604 L865.976422,131.718421 L820.414702,132.124055 L774.852982,132.529689 C759.665742,132.631097 744.478502,132.529689 729.291262,132.529689 L638.167822,132.42828 L547.044383,131.414196 L501.482663,130.907154 C486.295423,130.704337 471.108183,130.298703 455.920943,129.994477 L364.797503,128.169125 L342.016644,127.763492 L319.235784,127.053632 L273.674064,125.735323 L182.550624,123.098703 L91.5284327,119.752224 L45.9667129,118.02828 L0.404993065,116.405745 L0.506241331,113.4649 L46.0679612,114.78321 L91.629681,116.000111 L137.191401,117.217013 L159.972261,117.825463 C167.565881,118.02828 175.159501,118.231097 182.753121,118.332506 L273.87656,119.447999 L319.43828,119.955041 L342.21914,120.157858 L365,120.157858 L456.12344,120.056449 C471.31068,120.056449 486.49792,120.056449 501.68516,119.955041 L547.246879,119.34659 L638.269071,118.02828 L729.291262,115.594477 C744.478502,115.188844 759.665742,114.78321 774.751734,114.276168 L820.212205,112.552224 L865.672677,110.82828 L888.453537,109.915604 L911.133148,108.800111 L1002.05409,104.135323 L1092.87379,98.2536324 L1138.23301,94.8057451 C1153.319,93.5888437 1168.50624,92.5747592 1183.59223,91.3578577 L1228.85021,87.4029282 L1251.52982,85.4761676 L1274.10818,83.2451817 C1289.19417,81.7240549 1304.28017,80.2029282 1319.26491,78.580393 L1364.32039,73.5099704 L1386.7975,70.6705338 L1398.03606,69.2508155 L1403.60472,68.5409563 L1409.17337,67.7296887 L1431.54924,64.6874352 L1442.68655,63.0649 L1448.2552,62.2536324 L1453.62136,61.3409563 L1459.29126,103.324055 Z"/>
        <path fill="#14C3E0" d="M1460.08877,44.0174781 C1399.54283,52.5913911 1338.89563,60.7618259 1278.14719,67.4192172 C1270.55364,68.3270433 1262.96008,69.0331303 1255.36653,69.8400868 L1232.58586,72.2609563 L1209.8052,74.6818259 C1202.21164,75.4887824 1194.61809,76.1948694 1187.02453,76.9009563 L1141.4632,81.2383476 L1095.90187,85.1722607 C1035.15343,90.2157389 974.303742,94.6539998 913.454054,98.2853042 L890.673389,99.6974781 L867.892723,100.907913 L822.230146,103.328782 L776.567568,105.447043 L765.126611,105.951391 L753.685655,106.455739 L730.90499,107.363565 L708.124324,108.271391 L685.242412,109.078348 C670.055301,109.582695 654.766944,110.187913 639.579834,110.591391 L593.917256,111.902695 L548.254678,113.012261 C540.661123,113.214 533.067568,113.415739 525.372765,113.516609 L502.490852,113.920087 L479.60894,114.323565 L456.727027,114.626174 C426.251559,115.130522 395.877339,115.332261 365.401871,115.534 C334.926403,115.735739 304.552183,115.836609 274.076715,115.735739 C258.889605,115.735739 243.601247,115.735739 228.414137,115.634869 L205.633472,115.534 L182.852807,115.332261 L137.190229,114.827913 L91.5276507,114.323565 C76.3405405,114.121826 61.052183,113.819217 45.8650728,113.415739 C30.6779626,113.11313 15.389605,112.709652 0.202494802,112.306174 L0.303742204,109.078348 C15.4908524,109.582695 30.6779626,109.885304 45.9663202,110.187913 C61.1534304,110.490522 76.3405405,110.692261 91.6288981,110.79313 C122.003119,111.095739 152.478586,111.196609 182.954054,111.095739 L205.734719,110.994869 L228.515385,110.79313 C243.702495,110.692261 258.889605,110.490522 274.177963,110.288782 C304.552183,109.784435 335.027651,109.179217 365.401871,108.47313 C487,105.346174 608.598129,99.8992172 729.993763,91.4261737 L752.774428,89.8122607 L764.114137,89.0053042 L775.453846,88.0974781 L820.913929,84.5670433 L866.374012,80.7339998 L889.05343,78.7166085 L911.732848,76.5983476 L934.412266,74.4800868 C942.005821,73.7739998 949.498129,73.0679129 957.091684,72.2609563 L1002.45052,67.6209563 L1013.79023,66.4105216 L1025.12994,65.0992172 L1047.80936,62.4766085 L1070.48877,59.8539998 C1078.08233,59.0470433 1085.57464,58.0383476 1093.06694,57.1305216 L1138.22328,51.5826955 L1183.37963,45.429652 C1190.87193,44.4209563 1198.46549,43.4122607 1205.9578,42.3026955 L1228.43472,38.9739998 L1250.91164,35.6453042 C1258.40395,34.5357389 1265.89626,33.4261737 1273.38857,32.2157389 L1318.34241,24.9531303 L1329.58087,23.1374781 L1340.81933,21.1200868 L1363.19501,17.1861737 C1393.06299,12.1426955 1422.72848,6.09052156 1452.49522,0.441825906 L1460.08877,44.0174781 Z"/>
      </g>
    </g>
  </g>
</svg>
