<svg xmlns="http://www.w3.org/2000/svg" viewBox="0 0 60 50"><defs><style>.cls-1{fill:#fff;opacity:0.4;}.cls-2{fill:none;stroke:#fff;stroke-linecap:round;stroke-linejoin:round;stroke-width:1.95px;}</style></defs><title>HFHCH1901_icon</title><g id="artwork"><polygon class="cls-1" points="30.06 48.57 17.52 48.57 17.52 42.26 26.09 42.26 30.06 44.81 30.06 48.57"/><path class="cls-1" d="M41.91,7.11S38.26,26.62,22.6,36.74c0,0-11.65-12-12.1-26.69,0,0,6.78-.36,11.36-8.4,0,0,7.88,6.46,15.61,0A12.38,12.38,0,0,0,41.91,7.11Z"/><path class="cls-2" d="M30,44.57C10.1,27.81,10.5,10.05,10.5,10.05s6.93-.5,11.36-8.4c0,0,8,7,15.61,0,0,0,3.73,7.75,12,8.4,0,0,.4,17.76-19.5,34.52"/><polyline class="cls-2" points="32.6 42.32 42.05 42.32 42.05 48.65 17.64 48.65 17.64 42.32 26.94 42.32"/><line class="cls-2" x1="36.15" y1="38.65" x2="41.88" y2="38.65"/><line class="cls-2" x1="17.76" y1="38.65" x2="23.57" y2="38.65"/></g></svg>