<svg xmlns="http://www.w3.org/2000/svg" viewBox="0 0 60 50"><defs><style>.cls-1,.cls-2{fill:none;stroke:#fff;stroke-miterlimit:10;stroke-width:2.35px;}.cls-1{stroke-linecap:round;}.cls-2{stroke-dasharray:1.17 1.17;}.cls-3{fill:#fff;}</style></defs><title>HFHCH1901_icon</title><g id="artwork"><circle class="cls-1" cx="30" cy="25.14" r="23"/><circle class="cls-2" cx="30" cy="25.14" r="21.25" transform="translate(-3.1 46.04) rotate(-72.23)"/><path class="cls-3" d="M22,24.81h3.26l1.62-7.55c1-4.78,3.36-6.33,6.72-6.33A8.31,8.31,0,0,1,38.83,13L37,15.35A5.49,5.49,0,0,0,33.63,14c-2,0-2.65,1.2-3.16,3.65l-1.55,7.2h5.19v2.68H28.4L27.82,30a7.32,7.32,0,0,1-2.55,4.26l0,.07a9.32,9.32,0,0,1,2.49-.45c2,0,3.61.77,5.87.77a11.08,11.08,0,0,0,3-.45l-.42,3.13a15.14,15.14,0,0,1-2.81.29c-3.1,0-5.33-1-8.27-1a11.58,11.58,0,0,0-4.29.94v-3a5.26,5.26,0,0,0,3.06-4l.75-3.1H22Z"/></g></svg>