<svg xmlns="http://www.w3.org/2000/svg" viewBox="0 0 60 50"><defs><style>.cls-1{fill:#fff;opacity:0.4;}.cls-2{fill:none;stroke:#fff;stroke-linecap:round;stroke-linejoin:round;stroke-width:2.06px;}</style></defs><title>HFHCH1901_icon</title><g id="artwork"><path class="cls-1" d="M49.51,15.94s2.16-5.21-.94-8.18S40.64,3.11,37.49,4.84a8.42,8.42,0,0,0-4.67,6.84,11,11,0,0,0,1.35,4.77s-.41-3.73,1.16-4.61c0,0,.47,1.19,3.44.8s6.75-2.45,8-.8,1.14,6.57,1.14,6.57Z"/><path class="cls-1" d="M25.56,46.39s7.23-4.68,15-2.52,14.91,5.22,16.9,1.31c0,0-1.73-15.25-11-16.72l-5.64,3.09-4.65-3s-5.88,1.06-8.63,6.32C25,39.66,25.56,46.39,25.56,46.39Z"/><path class="cls-2" d="M22.68,24.46a12,12,0,0,1,8.12,5.65"/><path class="cls-2" d="M2.57,48.42S1,26.31,13.14,24.46"/><path class="cls-2" d="M17.44,7.31a16.53,16.53,0,0,0,4.4,2.49l2.38.73c0,2.61.15,5.07.15,5.07s0,2.77-1.94,4.09c-.72.49-1.26.91-1.75,1.25a4.65,4.65,0,0,1-1.7.84,3.92,3.92,0,0,1-.87.1h-.47c-1.67,0-2.37-.86-4.32-2.19s-1.94-4.09-1.94-4.09V11.23a12.91,12.91,0,0,0,6.06-3.92"/><polyline class="cls-2" points="21.89 20.14 22.71 24.46 17.71 27.49 13.14 24.46 13.95 20.14"/><path class="cls-2" d="M46.27,28.54c12.37,2.74,10.91,19.65,10.91,19.65"/><path class="cls-2" d="M25.15,48.19S23.69,31.28,36.06,28.54"/><polyline class="cls-2" points="36.05 28.54 40.81 31.55 46.29 28.54"/><path class="cls-2" d="M8.12,26.32,7,11.05c-.15-3.73,3-6.34,5.07-8a8.14,8.14,0,0,1,5.38-1.64,10.18,10.18,0,0,1,5.45,1.23c2.44,1.63,5.8,4.92,5.72,8.57L27.77,26.4"/><line class="cls-2" x1="36.84" y1="23.98" x2="35.97" y2="28.6"/><path class="cls-2" d="M42.25,11.84c3.08-1.32,4.48,0,4.48,0S48,12.66,48,15.45v3.68s0,3-2.08,4.38-2.82,2.33-4.61,2.33h-.5c-1.79,0-2.54-.92-4.61-2.33s-2.08-4.38-2.08-4.38V15.45A14.49,14.49,0,0,0,33.87,12S37,14.06,42.25,11.84Z"/><line class="cls-2" x1="45.33" y1="23.98" x2="46.19" y2="28.6"/><path class="cls-2" d="M34,13.75c-2.58-4,1.08-7.24,1.08-7.24a9,9,0,0,1,7.53-2.09,11.18,11.18,0,0,1,4.84,2.4s7.34,5.25.67,12.34"/></g></svg>