<svg xmlns="http://www.w3.org/2000/svg" viewBox="0 0 60 50"><defs><style>.cls-1{fill:#fff;opacity:0.4;}.cls-2{fill:none;stroke:#fff;stroke-linecap:round;stroke-miterlimit:10;stroke-width:2px;}</style></defs><title>HFHCH1901_icon</title><g id="artwork"><path class="cls-1" d="M11.68,28.29A16.05,16.05,0,0,1,1.54,37.92s.58,6.24,7.72,5.44S11.68,28.29,11.68,28.29Z"/><rect class="cls-1" x="30.15" y="31.99" width="9.88" height="16.04" rx="1.31"/><path class="cls-2" d="M52.77,48.51H17.42V22.17a3.42,3.42,0,0,1,1.37-2.75L33.1,8.74a3.33,3.33,0,0,1,4,0L51.39,19.42a3.41,3.41,0,0,1,1.38,2.75Z"/><path class="cls-2" d="M58.07,19.9,39,5.06a6.7,6.7,0,0,0-8.24,0L11.83,19.9"/><path class="cls-2" d="M30.15,48V33.23A1.23,1.23,0,0,1,31.37,32h7.44A1.23,1.23,0,0,1,40,33.23V48"/><line class="cls-2" x1="2.14" y1="48.66" x2="58.54" y2="48.66"/><path class="cls-2" d="M13.72,37.24a6.14,6.14,0,0,1-6.09,6.19,6.14,6.14,0,0,1-6.09-6.19c0-3.41,2.72-14,6.09-14S13.72,33.83,13.72,37.24Z"/><line class="cls-2" x1="7.63" y1="48.51" x2="7.63" y2="43.43"/></g></svg>