<?xml version="1.0" encoding="utf-8"?>
<!-- Generator: Adobe Illustrator 23.0.2, SVG Export Plug-In . SVG Version: 6.00 Build 0)  -->
<svg version="1.1" id="Layer_1" xmlns="http://www.w3.org/2000/svg" xmlns:xlink="http://www.w3.org/1999/xlink" x="0px" y="0px"
	 viewBox="0 0 309 291" style="enable-background:new 0 0 309 291;" xml:space="preserve">
<style type="text/css">
	.st0{fill:#FFFFFF;}
</style>
<path class="st0" d="M299.2,85.7c0-12.3-9.7-22.1-21.7-21.8c-10.2,0.3-20.5,0.1-30.8,0.1c-3.4,0-3.4,0-3.4-3.3c0-9.3,0.1-18.7,0-28
	c-0.1-13.4-9.2-22.4-22.5-22.4c-62.2,0-124.3,0-186.5,0c-2.1,0-4.2-0.1-6.2,0.2C17.3,12.1,9.8,20.9,9.8,31.9c0,31.4,0,62.8,0,94.2
	c0,8.3,0,16.7,0,25c-0.1,11.5,9.2,21.2,20.8,21.1c6.4,0,12.8,0,19.2,0c3.2,0,3.4,0.2,3.4,3.4c0,15.3,0,30.7,0,46c0,2,0,4.1,0,6.9
	c1-0.8,1.4-1.1,1.8-1.4c5.6-5.5,11.2-10.9,16.8-16.4c12.4-12.2,24.9-24.3,37.3-36.5c1.4-1.4,2.9-2,4.9-2c24.4,0,48.8,0,73.2,0
	c12.3,0,24.7,0.1,37-0.2c8.8-0.2,16.8-7.4,18.3-16.1c0.7-3.9,0.5-7.9,0.6-11.8c0.1-9.6,0.2-19.3,0.3-28.9c0-12.4,0-24.8,0-37.2
	c0-1.6,0-2.9,2.3-2.9c10.8,0.1,21.7-0.1,32.5,0.1c4.3,0.1,7.5,2.4,9,6.4c0.6,1.8,0.6,3.9,0.6,5.9c0,35.4,0,70.8,0,106.2
	c0,2.8,0.1,5.7,0,8.5c-0.2,6.3-4,9.9-10.4,9.9c-9.8,0-19.7,0-29.5,0c-3.4,0-3.4,0-3.4,3.5c0,11.3,0,22.7,0,34c0,0.8-0.1,1.7-0.2,3
	c-1-0.9-1.6-1.3-2.1-1.8c-12.5-12.2-25-24.4-37.5-36.7c-1.4-1.4-2.8-2-4.8-2c-35.4,0-70.8,0-106.2,0c-0.8,0-1.7,0-2.5,0.1
	c-4.4,0.7-6.6,5.2-4.3,8.8c1.6,2.5,4.1,2.7,6.8,2.7c34.1,0,68.2,0,102.2,0c1.1,0,2.6,0.4,3.4,1.1c15.3,14.9,30.6,29.9,45.9,44.9
	c3.3,3.2,6.7,6.4,10.5,10.1c0.1-1.5,0.3-2.4,0.3-3.3c0-16.6,0-33.2-0.1-49.7c0-2.6,0.9-3.3,3.3-3.2c6,0.1,12,0,18,0.1
	c12.8,0.1,22.2-9.1,22.2-21.9C299.2,163.2,299.1,124.4,299.2,85.7z M231.4,150.2c-0.1,2.3-0.5,4.3-1.3,5.8c-1.7,3.4-5.1,5-10.2,5
	c-37.2,0-74.3,0-111.5,0c-1.8,0-3.1,0.5-4.4,1.8c-0.3,0.3-0.6,0.6-1,0.9c-11.7,11.6-23.6,23.1-35.3,34.6c-0.4,0.4-0.8,0.8-1.2,1.2
	c-0.6,0.5-1.2,1-1.8,1.5c-0.2-0.1-0.5-0.2-0.7-0.4c0-0.9,0-1.8,0-2.7c0-11.2,0-22.3,0-33.5c0-3.4,0-3.4-3.5-3.4
	c-9.8,0-19.7,0-29.5,0c-6,0-10.2-4-10.2-9.9c-0.1-20.3-0.1-40.7-0.1-61c0-19,0-38,0-57c0-4.1,1-7.4,4.2-9.6c0.5-0.4,1.1-0.7,1.8-1
	c1.6-0.7,3.6-0.9,5.4-0.9c53.9,0,107.8,0,161.7,0c8.6,0,17.2,0,25.8,0c8.3,0,11.8,3.6,11.9,11.9c0,10.1,0,20.2,0,30.2
	c0,22.2,0,44.3,0,66.5C231.5,136.9,231.7,143.6,231.4,150.2z"/>
<path class="st0" d="M46.2,127.3c-0.1-4.1,2.1-6.2,6.5-6.2c3.9,0,7.8,0,11.6,0c13.5,0.1,27,0.2,40.5,0.2c6.2,0,12.4-0.5,18.6-0.5
	c16,0,32.1,0.2,48.1,0.3c8.3,0.1,16.7,0.2,25,0.1c2.5,0,4.8-0.6,7.1,1c3.1,2.1,3.6,6.4,0.7,8.8c-2,1.6-4,2.1-6.7,1.7
	c-3.2-0.5-6.5-0.2-9.7-0.2c-7.2,0-14.4,0-21.6,0c-4.5,0-8.9,0.3-13.4,0.4c-2.7,0-5.5-0.2-8.2-0.2c-5.5-0.1-10.9-0.2-16.4-0.2
	c-5,0-10.1-0.1-15.1,0c-5.5,0.1-10.9,0.4-16.4,0.5c-3.6,0-7.3-0.2-10.9-0.2c-4.4,0-8.9,0.2-13.4,0.2c-2.1,0-4.1-0.4-6.2-0.4
	c-4.5,0-8.9,0.2-13.4,0.2c-1.5,0-3-0.3-4.4-0.8C46.5,130.9,45.9,129.2,46.2,127.3z"/>
<path class="st0" d="M125.9,97.7c-24.4,0-48.8,0-73.2,0c-4.5,0-6.8-2.1-6.7-5.9c0.1-2.9,2-5,4.9-5.3c1.3-0.1,2.7-0.1,4-0.1
	c48,0,96.1,0,144.2,0c5,0,7.4,2,7.2,5.9c-0.1,3.1-2.2,5.3-5.4,5.3c-4.2,0.1-8.5,0-12.7,0C167.4,97.7,146.7,97.7,125.9,97.7z"/>
<path class="st0" d="M125.9,62.8c-24.3,0-48.6,0-73,0c-3.9,0-6-1.2-6.7-3.9c-1-3.8,1.3-7.2,5.3-7.3c5.3-0.2,10.7-0.1,16-0.1
	c10.2,0,20.5,0,30.7,0c33.3,0,66.6,0,99.9,0c1.2,0,2.5,0,3.7,0.2c2.9,0.5,4.6,2.9,4.4,6c-0.2,2.8-2.1,4.8-4.9,5
	c-1.1,0.1-2.2,0-3.2,0C174,62.8,149.9,62.8,125.9,62.8C125.9,62.8,125.9,62.8,125.9,62.8z"/>
</svg>
