<?xml version="1.0" encoding="utf-8"?>
<!-- Generator: Adobe Illustrator 23.0.2, SVG Export Plug-In . SVG Version: 6.00 Build 0)  -->
<svg version="1.1" id="Layer_1" xmlns="http://www.w3.org/2000/svg" xmlns:xlink="http://www.w3.org/1999/xlink" x="0px" y="0px"
	 viewBox="0 0 116.22 116.22" style="enable-background:new 0 0 116.22 116.22;" xml:space="preserve">
<style type="text/css">
	.st0{fill:#3B5A69;}
</style>
<path class="st0" d="M63,88.02V60.86h9.11l1.36-10.58H62.98v-6.75c0-3.06,0.85-5.15,5.24-5.15h5.6v-9.46
	c-0.97-0.13-4.29-0.41-8.16-0.41c-8.08,0-13.61,4.93-13.61,13.99v7.8h-9.14v10.58h9.14v27.15L63,88.02"/>
<path class="st0" d="M57.97,114.81c-31.26,0-56.69-25.43-56.69-56.69S26.7,1.42,57.97,1.42s56.69,25.43,56.69,56.69
	S89.23,114.81,57.97,114.81z M57.97,6.46c-28.48,0-51.65,23.17-51.65,51.65s23.17,51.65,51.65,51.65s51.65-23.17,51.65-51.65
	S86.45,6.46,57.97,6.46z"/>
</svg>
