<svg xmlns="http://www.w3.org/2000/svg" viewBox="0 0 60 50"><defs><style>.cls-1{fill:#fff;opacity:0.4;}.cls-2{fill:none;stroke:#fff;stroke-linecap:round;stroke-linejoin:round;stroke-width:2px;}</style></defs><title>HFHCH1901_icon</title><g id="artwork"><path class="cls-1" d="M12.18,42.8s5.11-11,8.16-8.46,8.37,8.45,10.39,7.58a23.4,23.4,0,0,0,9.19-7.44s1.34-1.82,3.54.77S48,43.44,48,43.44a37,37,0,0,1-13.67,5.78C22.44,51.7,20.73,42.16,12.18,42.8Z"/><path class="cls-2" d="M25,25.92l-.58,3.2a4,4,0,0,1-2.59,3,14.88,14.88,0,0,0-6.39,4.34A19.8,19.8,0,0,0,12,43.05"/><path class="cls-2" d="M33.23,9.14c5.24,1.28,4.85,7.9,4.85,7.9v3s0,3.59-2.44,5.3c-1.18.83-2,1.51-2.76,2a4.61,4.61,0,0,1-2.66.82h-.59a4.42,4.42,0,0,1-2.41-.67c-.84-.49-1.7-1.23-3-2.15a6.6,6.6,0,0,1-2.4-4.71l0-.59a14.44,14.44,0,0,1,1.66-7.15A7.49,7.49,0,0,0,29,12.48,9.87,9.87,0,0,0,33.23,9.14Z"/><path class="cls-2" d="M35.08,25.79l.46,2.69a4.08,4.08,0,0,0,2.59,3.12c6,2.21,8.64,7,9.81,11.29"/><path class="cls-2" d="M40.82,33.49c-2,2.69-9.39,8.43-10.6,8.43s-8.89-5.86-10.79-8.7"/><path class="cls-2" d="M22.09,31.49c-9.49-2.69-6.37-8.68-5.36-11.77a2,2,0,0,0-.08-1.34C15.79,16.31,14,10,20.51,4.26,26.14-.62,32.9,2.55,35.13,3.84a4.11,4.11,0,0,0,1.55.51,8,8,0,0,1,6.69,5.38c1.59,4.27,1.52,6.83.56,8.42a2,2,0,0,0-.21,1.63C44.09,21,46,25.73,37.37,30.84"/><line class="cls-2" x1="37.59" y1="42.51" x2="41.78" y2="42.51"/></g></svg>