<?xml version="1.0" encoding="utf-8"?>
<!-- Generator: Adobe Illustrator 23.0.2, SVG Export Plug-In . SVG Version: 6.00 Build 0)  -->
<svg version="1.1" id="Layer_1" xmlns="http://www.w3.org/2000/svg" xmlns:xlink="http://www.w3.org/1999/xlink" x="0px" y="0px"
	 viewBox="0 0 116.22 116.22" style="enable-background:new 0 0 116.22 116.22;" xml:space="preserve">
<style type="text/css">
	.st0{fill:#3B5A69;}
</style>
<g>
	<g>
		<g>
			<g>
				<path class="st0" d="M43.65,88.23H31.37V48.78h12.28V88.23z M37.52,43.38c-3.94,0-7.12-3.18-7.12-7.12
					c0-3.92,3.17-7.11,7.12-7.11c3.92,0,7.11,3.18,7.11,7.11C44.62,40.19,41.44,43.38,37.52,43.38z M89.56,88.23H77.31V69.05
					c0-4.58-0.09-10.46-6.37-10.46c-6.38,0-7.36,4.98-7.36,10.13v19.51H51.34V48.78h11.75v5.39h0.17c1.63-3.1,5.63-6.37,11.6-6.37
					c12.41,0,14.69,8.16,14.69,18.8L89.56,88.23L89.56,88.23z"/>
			</g>
		</g>
	</g>
</g>
<path class="st0" d="M58.01,114.99c-31.26,0-56.69-25.43-56.69-56.69S26.74,1.6,58.01,1.6s56.69,25.43,56.69,56.69
	S89.27,114.99,58.01,114.99z M58.01,6.64c-28.48,0-51.65,23.17-51.65,51.65s23.17,51.65,51.65,51.65s51.65-23.17,51.65-51.65
	S86.49,6.64,58.01,6.64z"/>
</svg>
