<svg xmlns="http://www.w3.org/2000/svg" width="42" height="42" viewBox="0 0 42 42">
  <g fill="none" fill-rule="evenodd" transform="translate(1 1)">
    <circle cx="20" cy="20" r="20" stroke="#FFF"/>
    <path fill="#FFF" d="M12.8333333 7C14.2127451 7 15.3333333 8.12124779 15.3333333 9.50147145 15.3333333 10.8787522 14.2127451 12 12.8333333 12 11.4509804 12 10.3333333 10.8787522 10.3333333 9.50147145 10.3333333 8.12124779 11.4509804 7 12.8333333 7L12.8333333 7zM10.3333333 29L14.3333333 29 14.3333333 14 10.3333333 14 10.3333333 29zM17.12365 14.35641L21.7349922 14.35641 21.7349922 16.3595156 21.8039653 16.3595156C22.4444295 15.2042361 24.0143879 13.993056 26.3561878 13.993056 31.2237157 13.993056 32.12365 17.0210063 32.12365 20.9651057L32.12365 28.993056 27.3152419 28.993056 27.3152419 21.8750436C27.3152419 20.1762858 27.2823975 17.993056 24.8157893 17.993056 22.3097678 17.993056 21.9287737 19.8439877 21.9287737 21.7539256L21.9287737 28.993056 17.12365 28.993056 17.12365 14.35641z"/>
  </g>
</svg>
