<svg xmlns="http://www.w3.org/2000/svg" width="42" height="42" viewBox="0 0 42 42">
  <g fill="none" fill-rule="evenodd" transform="translate(1.333 1)">
    <circle cx="20" cy="20" r="20" fill="#184367" fill-rule="nonzero" stroke="#184367"/>
    <path fill="#FFF" d="M30.9408881,15.2304417 C30.9517013,15.4614156 30.95891,15.6886642 30.95891,15.9196381 C30.95891,22.9196381 25.8010381,31 16.3647636,31 C13.4668397,31 10.7707612,30.1245343 8.5,28.6194784 C8.90369089,28.6641831 9.31098616,28.6902608 9.7254902,28.6902608 C12.1296136,28.6902608 14.3427047,27.8483236 16.0944348,26.4215008 C13.8525087,26.3805216 11.9566032,24.8456626 11.3042099,22.744545 C11.6177912,22.8041511 11.9421857,22.8376796 12.2701845,22.8376796 C12.7351499,22.8376796 13.1929066,22.7706227 13.6218281,22.6514103 C11.2717705,22.1633848 9.50922722,20.0212879 9.50922722,17.4544971 L9.50922722,17.3874401 C10.1976644,17.782331 10.9870242,18.0207557 11.8304498,18.0505588 C10.4499712,17.1005854 9.54527105,15.4763172 9.54527105,13.639702 C9.54527105,12.6711016 9.80478662,11.7546567 10.240917,10.9686003 C12.7747982,14.1798829 16.5521915,16.2884513 20.8125721,16.5119745 C20.7260669,16.1208089 20.6792099,15.7184673 20.6792099,15.3049494 C20.6792099,12.3767962 22.9788062,10 25.8082468,10 C27.2824394,10 28.6160611,10.6444918 29.5532007,11.6726982 C30.7210208,11.4379989 31.8203576,10.9984034 32.8115629,10.3911655 C32.4294983,11.6279936 31.6149077,12.6711016 30.5552191,13.3193188 C31.5932814,13.1926557 32.5844867,12.9095263 33.5,12.4885577 C32.8115629,13.5540181 31.9429066,14.4853646 30.9408881,15.2304417"/>
  </g>
</svg>
