<svg xmlns="http://www.w3.org/2000/svg" width="42" height="42" viewBox="0 0 42 42">
  <g fill="none" fill-rule="evenodd" transform="translate(1.333 3)">
    <circle cx="20" cy="18" r="20" stroke="#184367"/>
    <path fill="#184367" d="M30.9408881,13.2304417 C30.9517013,13.4614156 30.95891,13.6886642 30.95891,13.9196381 C30.95891,20.9196381 25.8010381,29 16.3647636,29 C13.4668397,29 10.7707612,28.1245343 8.5,26.6194784 C8.90369089,26.6641831 9.31098616,26.6902608 9.7254902,26.6902608 C12.1296136,26.6902608 14.3427047,25.8483236 16.0944348,24.4215008 C13.8525087,24.3805216 11.9566032,22.8456626 11.3042099,20.744545 C11.6177912,20.8041511 11.9421857,20.8376796 12.2701845,20.8376796 C12.7351499,20.8376796 13.1929066,20.7706227 13.6218281,20.6514103 C11.2717705,20.1633848 9.50922722,18.0212879 9.50922722,15.4544971 L9.50922722,15.3874401 C10.1976644,15.782331 10.9870242,16.0207557 11.8304498,16.0505588 C10.4499712,15.1005854 9.54527105,13.4763172 9.54527105,11.639702 C9.54527105,10.6711016 9.80478662,9.75465673 10.240917,8.96860032 C12.7747982,12.1798829 16.5521915,14.2884513 20.8125721,14.5119745 C20.7260669,14.1208089 20.6792099,13.7184673 20.6792099,13.3049494 C20.6792099,10.3767962 22.9788062,8 25.8082468,8 C27.2824394,8 28.6160611,8.64449175 29.5532007,9.67269824 C30.7210208,9.43799894 31.8203576,8.99840341 32.8115629,8.39116551 C32.4294983,9.62799361 31.6149077,10.6711016 30.5552191,11.3193188 C31.5932814,11.1926557 32.5844867,10.9095263 33.5,10.4885577 C32.8115629,11.5540181 31.9429066,12.4853646 30.9408881,13.2304417"/>
  </g>
</svg>
