<?xml version="1.0" encoding="utf-8"?>
<!-- Generator: Adobe Illustrator 23.0.2, SVG Export Plug-In . SVG Version: 6.00 Build 0)  -->
<svg version="1.1" id="Layer_1" xmlns="http://www.w3.org/2000/svg" xmlns:xlink="http://www.w3.org/1999/xlink" x="0px" y="0px"
	 viewBox="0 0 116.22 116.22" style="enable-background:new 0 0 116.22 116.22;" xml:space="preserve">
<style type="text/css">
	.st0{fill:#FFFFFF;}
</style>
<path class="st0" d="M92.97,39.28c-2.48,1.1-5.13,1.84-7.92,2.18c2.85-1.7,5.04-4.41,6.07-7.63c-2.67,1.58-5.62,2.73-8.76,3.35
	c-2.52-2.68-6.11-4.35-10.07-4.35c-7.62,0-13.8,6.18-13.8,13.8c0,1.08,0.12,2.14,0.35,3.14C47.37,49.19,37.2,43.7,30.4,35.34
	c-1.19,2.04-1.86,4.4-1.86,6.93c0,4.79,2.44,9.01,6.14,11.49c-2.26-0.07-4.39-0.7-6.25-1.72c0,0.06,0,0.11,0,0.17
	c0,6.68,4.76,12.27,11.07,13.54c-1.16,0.31-2.38,0.48-3.64,0.48c-0.89,0-1.75-0.09-2.6-0.25c1.75,5.48,6.85,9.47,12.89,9.58
	c-4.73,3.7-10.67,5.91-17.13,5.91c-1.12,0-2.21-0.06-3.3-0.19c6.11,3.91,13.36,6.2,21.16,6.2c25.38,0,39.26-21.02,39.26-39.26
	c0-0.59-0.01-1.19-0.04-1.78C88.78,44.48,91.12,42.05,92.97,39.28z"/>
<path class="st0" d="M58.17,114.68c-31.26,0-56.69-25.43-56.69-56.69S26.91,1.3,58.17,1.3s56.69,25.43,56.69,56.69
	S89.43,114.68,58.17,114.68z M58.17,6.34c-28.48,0-51.65,23.17-51.65,51.65s23.17,51.65,51.65,51.65s51.65-23.17,51.65-51.65
	C109.83,29.52,86.66,6.34,58.17,6.34z"/>
</svg>
