<?xml version="1.0" encoding="utf-8"?>
<!-- Generator: Adobe Illustrator 23.0.1, SVG Export Plug-In . SVG Version: 6.00 Build 0)  -->
<svg version="1.1" id="Layer_1" xmlns="http://www.w3.org/2000/svg" xmlns:xlink="http://www.w3.org/1999/xlink" x="0px" y="0px"
	 viewBox="0 0 612 792" style="enable-background:new 0 0 612 792;" xml:space="preserve">
<style type="text/css">
	.st0{fill:#FFFFFF;}
</style>
<g>
	<path class="st0" d="M220.24,472.52c1.04-0.81,1.44-1.07,1.78-1.4c5.61-5.46,11.22-10.92,16.82-16.39
		c12.44-12.16,24.89-24.32,37.3-36.52c1.4-1.37,2.86-2.02,4.86-2.02c24.41,0.05,48.83,0.05,73.24,0.03
		c12.33-0.01,24.67,0.14,36.99-0.19c8.79-0.24,16.84-7.4,18.33-16.07c0.66-3.87,0.51-7.89,0.56-11.85
		c0.14-9.64,0.23-19.28,0.26-28.92c0.04-12.42,0.02-24.83,0-37.25c0-1.62-0.01-2.91,2.29-2.89c10.83,0.08,21.67-0.07,32.5,0.08
		c4.3,0.06,7.49,2.39,8.95,6.44c0.65,1.81,0.59,3.93,0.59,5.92c0.03,35.41,0.02,70.82,0.02,106.24c0,2.83,0.08,5.67-0.03,8.5
		c-0.25,6.32-4.05,9.9-10.39,9.9c-9.83,0-19.66-0.01-29.5,0c-3.36,0-3.37,0.02-3.37,3.49c0,11.33,0,22.66-0.01,33.99
		c0,0.83-0.13,1.66-0.24,3.01c-1.05-0.88-1.63-1.32-2.15-1.82c-12.51-12.21-25.04-24.41-37.5-36.67c-1.41-1.38-2.82-2.02-4.83-2.02
		c-35.41,0.05-70.83,0.03-106.24,0.03c-0.83,0-1.68-0.03-2.49,0.1c-4.43,0.69-6.65,5.19-4.33,8.79c1.62,2.52,4.13,2.73,6.82,2.72
		c34.08-0.03,68.16-0.04,102.24,0.02c1.13,0,2.58,0.4,3.35,1.15c15.35,14.91,30.61,29.9,45.91,44.87
		c3.31,3.24,6.66,6.43,10.48,10.12c0.13-1.54,0.26-2.4,0.27-3.27c0.01-16.58,0.05-33.16-0.06-49.73c-0.02-2.58,0.87-3.29,3.32-3.23
		c6,0.15,12,0.05,18,0.09c12.81,0.1,22.18-9.13,22.19-21.91c0.01-38.75-0.09-77.49,0.06-116.24c0.05-12.31-9.71-22.14-21.7-21.82
		c-10.24,0.27-20.5,0.07-30.75,0.06c-3.36,0-3.38-0.02-3.38-3.28c-0.01-9.33,0.06-18.66-0.01-27.99
		c-0.1-13.4-9.17-22.44-22.49-22.44c-62.16-0.02-124.32-0.02-186.48-0.02c-2.08,0-4.19-0.13-6.23,0.19
		c-10.92,1.68-18.36,10.47-18.36,21.55c-0.01,31.41,0,62.83,0,94.24c0,8.33,0.03,16.67-0.01,25c-0.05,11.46,9.22,21.18,20.79,21.14
		c6.42-0.03,12.83,0,19.25,0.01c3.22,0.01,3.41,0.19,3.41,3.39c0,15.33-0.02,30.66-0.03,46
		C220.24,467.67,220.24,469.73,220.24,472.52z"/>
	<path class="st0" d="M220.24,472.52c0-2.8,0-4.85,0-6.91c0.01-15.33,0.02-30.66,0.03-46c0-3.21-0.19-3.38-3.41-3.39
		c-6.42-0.01-12.83-0.04-19.25-0.01c-11.57,0.05-20.84-9.67-20.79-21.14c0.03-8.33,0.01-16.67,0.01-25c0-31.41,0-62.83,0-94.24
		c0-11.09,7.45-19.87,18.36-21.55c2.04-0.31,4.15-0.19,6.23-0.19c62.16,0,124.32,0,186.48,0.02c13.32,0,22.39,9.05,22.49,22.44
		c0.07,9.33,0,18.66,0.01,27.99c0,3.27,0.02,3.28,3.38,3.28c10.25,0.01,20.5,0.21,30.75-0.06c11.99-0.32,21.75,9.51,21.7,21.82
		c-0.14,38.75-0.05,77.49-0.06,116.24c0,12.78-9.37,22.01-22.19,21.91c-6-0.05-12,0.05-18-0.09c-2.45-0.06-3.34,0.65-3.32,3.23
		c0.11,16.58,0.06,33.16,0.06,49.73c0,0.86-0.14,1.72-0.27,3.27c-3.82-3.69-7.17-6.88-10.48-10.12
		c-15.29-14.97-30.56-29.96-45.91-44.87c-0.77-0.75-2.22-1.15-3.35-1.15c-34.08-0.06-68.16-0.05-102.24-0.02
		c-2.69,0-5.2-0.21-6.82-2.72c-2.32-3.6-0.11-8.1,4.33-8.79c0.82-0.13,1.66-0.1,2.49-0.1c35.41,0,70.83,0.02,106.24-0.03
		c2.01,0,3.42,0.64,4.83,2.02c12.47,12.26,24.99,24.46,37.5,36.67c0.52,0.51,1.11,0.94,2.15,1.82c0.11-1.35,0.24-2.18,0.24-3.01
		c0.01-11.33,0.01-22.66,0.01-33.99c0-3.47,0.01-3.48,3.37-3.49c9.83-0.01,19.66-0.01,29.5,0c6.34,0,10.14-3.57,10.39-9.9
		c0.11-2.83,0.03-5.66,0.03-8.5c0-35.41,0.01-70.82-0.02-106.24c0-1.98,0.06-4.11-0.59-5.92c-1.46-4.05-4.65-6.38-8.95-6.44
		c-10.83-0.15-21.66,0-32.5-0.08c-2.3-0.02-2.29,1.27-2.29,2.89c0.02,12.42,0.04,24.83,0,37.25c-0.03,9.64-0.12,19.28-0.26,28.92
		c-0.06,3.96,0.1,7.98-0.56,11.85c-1.49,8.66-9.53,15.83-18.33,16.07c-12.32,0.33-24.66,0.18-36.99,0.19
		c-24.41,0.02-48.83,0.02-73.24-0.03c-2,0-3.46,0.64-4.86,2.02c-12.41,12.2-24.85,24.36-37.3,36.52
		c-5.6,5.47-11.21,10.93-16.82,16.39C221.69,471.45,221.28,471.71,220.24,472.52z M231.54,444.51c0.22,0.12,0.44,0.25,0.67,0.37
		c0.61-0.49,1.27-0.94,1.83-1.49c12.51-12.21,25.04-24.41,37.49-36.68c1.31-1.29,2.59-1.77,4.38-1.77
		c37.16,0.04,74.33,0.03,111.49,0.01c7.43,0,11.19-3.38,11.47-10.82c0.26-6.62,0.01-13.26,0-19.89c-0.01-22.17-0.01-44.33,0-66.5
		c0-10.08,0.05-20.16,0.01-30.24c-0.03-8.34-3.6-11.9-11.87-11.92c-8.58-0.03-17.17-0.01-25.75,0c-53.91,0-107.82,0-161.74,0.05
		c-1.8,0-3.73,0.18-5.36,0.86c-4.59,1.92-5.98,5.75-5.96,10.52c0.09,19,0.03,38,0.04,57c0.01,20.33-0.01,40.66,0.08,60.99
		c0.03,5.95,4.18,9.9,10.21,9.93c9.83,0.05,19.67,0.03,29.5,0.04c3.47,0,3.49,0.01,3.49,3.36c0.01,11.17,0.01,22.33,0.01,33.5
		C231.54,442.72,231.54,443.62,231.54,444.51z"/>
	<path class="st0" d="M231.54,444.51c0-0.9,0-1.79,0-2.69c0-11.17,0-22.33-0.01-33.5c0-3.35-0.02-3.35-3.49-3.36
		c-9.83-0.01-19.67,0.02-29.5-0.04c-6.03-0.03-10.18-3.98-10.21-9.93c-0.09-20.33-0.07-40.66-0.08-60.99c-0.01-19,0.05-38-0.04-57
		c-0.02-4.77,1.37-8.59,5.96-10.52c1.63-0.68,3.56-0.86,5.36-0.86c53.91-0.05,107.82-0.04,161.74-0.05c8.58,0,17.17-0.03,25.75,0
		c8.27,0.03,11.84,3.59,11.87,11.92c0.04,10.08-0.01,20.16-0.01,30.24c0,22.17-0.01,44.33,0,66.5c0,6.63,0.25,13.27,0,19.89
		c-0.29,7.44-4.04,10.82-11.47,10.82c-37.16,0.02-74.33,0.02-111.49-0.01c-1.79,0-3.07,0.48-4.38,1.77
		c-12.45,12.28-24.98,24.47-37.49,36.68c-0.56,0.55-1.22,0.99-1.83,1.49C231.98,444.76,231.76,444.64,231.54,444.51z M213.59,370.69
		c-0.34,1.86,0.3,3.61,2.43,4.35c1.39,0.48,2.92,0.76,4.39,0.77c4.47,0.03,8.94-0.18,13.41-0.17c2.07,0,4.14,0.43,6.21,0.43
		c4.45,0,8.91-0.21,13.36-0.21c3.65,0,7.31,0.28,10.95,0.23c5.45-0.08,10.9-0.41,16.35-0.5c5.04-0.09,10.08-0.03,15.12,0.01
		c5.47,0.04,10.94,0.12,16.4,0.22c2.73,0.05,5.46,0.29,8.19,0.25c4.45-0.05,8.9-0.33,13.35-0.38c7.2-0.07,14.4-0.05,21.6-0.04
		c3.24,0,6.53-0.29,9.7,0.22c2.66,0.43,4.71-0.06,6.69-1.66c2.91-2.34,2.42-6.71-0.7-8.77c-2.34-1.55-4.64-0.99-7.12-0.95
		c-8.32,0.15-16.65-0.04-24.98-0.1c-16.05-0.11-32.1-0.27-48.15-0.29c-6.19-0.01-12.37,0.46-18.56,0.47
		c-13.49,0.02-26.98-0.12-40.47-0.17c-3.88-0.02-7.75,0-11.63,0.02C215.73,364.47,213.46,366.54,213.59,370.69z M293.28,341.05
		c20.74,0,41.48,0,62.21,0c4.25,0,8.49,0.07,12.74-0.04c3.27-0.09,5.31-2.21,5.43-5.34c0.15-3.91-2.23-5.88-7.2-5.88
		c-48.05-0.01-96.11-0.01-144.16-0.01c-1.33,0-2.67-0.05-3.99,0.08c-2.87,0.26-4.82,2.43-4.9,5.32c-0.1,3.81,2.22,5.89,6.68,5.89
		C244.48,341.06,268.88,341.06,293.28,341.05z M293.24,306.14c0,0,0,0.01,0,0.01c24.07,0,48.14,0,72.22,0
		c1.08,0,2.17,0.03,3.25-0.05c2.83-0.22,4.76-2.2,4.94-4.99c0.2-3.17-1.45-5.54-4.36-6.04c-1.22-0.21-2.49-0.17-3.74-0.17
		c-33.32-0.01-66.64-0.01-99.95-0.01c-10.24,0-20.49-0.01-30.73,0c-5.33,0-10.66-0.09-15.99,0.07c-3.99,0.12-6.29,3.46-5.3,7.3
		c0.68,2.64,2.79,3.87,6.71,3.88C244.6,306.15,268.92,306.14,293.24,306.14z"/>
	<path class="st0" d="M213.59,370.69c-0.13-4.15,2.14-6.22,6.54-6.24c3.88-0.02,7.75-0.04,11.63-0.02
		c13.49,0.06,26.98,0.2,40.47,0.17c6.19-0.01,12.37-0.48,18.56-0.47c16.05,0.02,32.1,0.18,48.15,0.29
		c8.33,0.06,16.66,0.25,24.98,0.1c2.49-0.05,4.78-0.6,7.12,0.95c3.12,2.06,3.61,6.43,0.7,8.77c-1.98,1.59-4.03,2.09-6.69,1.66
		c-3.16-0.51-6.46-0.22-9.7-0.22c-7.2-0.01-14.4-0.04-21.6,0.04c-4.45,0.05-8.9,0.32-13.35,0.38c-2.73,0.03-5.46-0.2-8.19-0.25
		c-5.47-0.1-10.94-0.18-16.4-0.22c-5.04-0.04-10.08-0.1-15.12-0.01c-5.45,0.09-10.9,0.43-16.35,0.5c-3.65,0.05-7.3-0.23-10.95-0.23
		c-4.45,0-8.91,0.21-13.36,0.21c-2.07,0-4.14-0.43-6.21-0.43c-4.47-0.01-8.94,0.2-13.41,0.17c-1.47-0.01-3-0.29-4.39-0.77
		C213.89,374.29,213.25,372.55,213.59,370.69z"/>
	<path class="st0" d="M293.28,341.05c-24.4,0-48.8,0.01-73.2,0c-4.46,0-6.78-2.07-6.68-5.89c0.08-2.89,2.03-5.05,4.9-5.32
		c1.32-0.12,2.66-0.08,3.99-0.08c48.05,0,96.11,0,144.16,0.01c4.98,0,7.36,1.97,7.2,5.88c-0.12,3.13-2.16,5.26-5.43,5.34
		c-4.24,0.11-8.49,0.04-12.74,0.04C334.76,341.05,314.02,341.05,293.28,341.05z"/>
	<path class="st0" d="M293.24,306.14c-24.32,0-48.64,0-72.96,0c-3.92,0-6.04-1.24-6.71-3.88c-0.98-3.84,1.32-7.18,5.3-7.3
		c5.33-0.16,10.66-0.07,15.99-0.07c10.24,0,20.49,0,30.73,0c33.32,0,66.64,0,99.95,0.01c1.25,0,2.52-0.04,3.74,0.17
		c2.91,0.5,4.56,2.87,4.36,6.04c-0.18,2.79-2.11,4.77-4.94,4.99c-1.08,0.08-2.16,0.05-3.25,0.05c-24.07,0-48.14,0-72.22,0
		C293.24,306.15,293.24,306.15,293.24,306.14z"/>
</g>
</svg>
