<?xml version="1.0" encoding="utf-8"?>
<!-- Generator: Adobe Illustrator 23.0.1, SVG Export Plug-In . SVG Version: 6.00 Build 0)  -->
<svg version="1.1" id="Layer_1" xmlns="http://www.w3.org/2000/svg" xmlns:xlink="http://www.w3.org/1999/xlink" x="0px" y="0px"
	 viewBox="0 0 566.93 566.93" style="enable-background:new 0 0 566.93 566.93;" xml:space="preserve">
<style type="text/css">
	.st0{fill:#3A5968;}
</style>
<g>
	<g>
		<g>
			<g>
				<path class="st0" d="M245,305.19h-12.18v-39.14H245V305.19z M238.92,260.69c-3.91,0-7.06-3.16-7.06-7.06
					c0-3.89,3.15-7.05,7.06-7.05c3.89,0,7.05,3.16,7.05,7.05C245.97,257.53,242.81,260.69,238.92,260.69z M290.56,305.19H278.4
					v-19.03c0-4.54-0.09-10.38-6.32-10.38c-6.33,0-7.3,4.94-7.3,10.05v19.36h-12.15v-39.14h11.66v5.35h0.17
					c1.62-3.08,5.59-6.32,11.51-6.32c12.31,0,14.58,8.1,14.58,18.65V305.19z"/>
			</g>
		</g>
	</g>
</g>
<path class="st0" d="M120.24,305.42v-26.94h9.04l1.35-10.5h-10.4v-6.7c0-3.04,0.84-5.11,5.2-5.11l5.56,0v-9.39
	c-0.96-0.13-4.26-0.41-8.1-0.41c-8.02,0-13.5,4.89-13.5,13.88v7.74h-9.07v10.5h9.07v26.94H120.24"/>
<path class="st0" d="M437.45,256.4c-2.46,1.09-5.09,1.83-7.86,2.16c2.83-1.69,5-4.38,6.02-7.57c-2.65,1.57-5.58,2.71-8.69,3.32
	c-2.5-2.66-6.06-4.32-9.99-4.32c-7.56,0-13.69,6.13-13.69,13.69c0,1.07,0.12,2.12,0.35,3.12c-11.38-0.57-21.47-6.02-28.22-14.31
	c-1.18,2.02-1.85,4.37-1.85,6.88c0,4.75,2.42,8.94,6.09,11.4c-2.24-0.07-4.36-0.69-6.2-1.71c0,0.06,0,0.11,0,0.17
	c0,6.63,4.72,12.17,10.98,13.43c-1.15,0.31-2.36,0.48-3.61,0.48c-0.88,0-1.74-0.09-2.58-0.25c1.74,5.44,6.8,9.4,12.79,9.51
	c-4.69,3.67-10.59,5.86-17,5.86c-1.11,0-2.19-0.06-3.27-0.19c6.06,3.88,13.26,6.15,20.99,6.15c25.18,0,38.95-20.86,38.95-38.95
	c0-0.59-0.01-1.18-0.04-1.77C433.3,261.56,435.62,259.15,437.45,256.4z"/>
<path class="st0" d="M115.25,332C84.23,332,59,306.77,59,275.75s25.23-56.25,56.25-56.25s56.25,25.23,56.25,56.25
	S146.27,332,115.25,332z M115.25,224.5C86.99,224.5,64,247.49,64,275.75C64,304.01,86.99,327,115.25,327s51.25-22.99,51.25-51.25
	C166.5,247.49,143.51,224.5,115.25,224.5z"/>
<path class="st0" d="M259.25,331.74c-31.02,0-56.25-25.23-56.25-56.25s25.23-56.25,56.25-56.25s56.25,25.23,56.25,56.25
	S290.27,331.74,259.25,331.74z M259.25,224.24c-28.26,0-51.25,22.99-51.25,51.25s22.99,51.25,51.25,51.25
	c28.26,0,51.25-22.99,51.25-51.25S287.51,224.24,259.25,224.24z"/>
<path class="st0" d="M402.93,331.21c-31.02,0-56.25-25.23-56.25-56.25s25.23-56.25,56.25-56.25s56.25,25.23,56.25,56.25
	S433.94,331.21,402.93,331.21z M402.93,223.71c-28.26,0-51.25,22.99-51.25,51.25c0,28.26,22.99,51.25,51.25,51.25
	s51.25-22.99,51.25-51.25C454.18,246.71,431.19,223.71,402.93,223.71z"/>
</svg>
