<svg xmlns="http://www.w3.org/2000/svg" width="49" height="49" viewBox="0 0 49 49">
  <g fill="none" fill-rule="evenodd" transform="translate(-4 -4)">
    <g stroke="#FFF">
      <circle cx="28.62" cy="28.62" r="23.609" stroke-linecap="round" stroke-width="1.5"/>
      <path stroke-dasharray=".998 .998" stroke-width="1.5" d="M28.5978091,51.6254655 C41.3003583,51.6254655 51.5978091,41.3280147 51.5978091,28.6254655 C51.5978091,15.9229162 41.3003583,5.62546545 28.5978091,5.62546545 C15.8952598,5.62546545 5.59780909,15.9229162 5.59780909,28.6254655 C5.59780909,41.3280147 15.8952598,51.6254655 28.5978091,51.6254655 Z" transform="rotate(-76.714 28.598 28.625)"/>
      <path stroke-linecap="round" stroke-linejoin="round" stroke-width="1.5" d="M20.3090909,29.2590909 L23.6818182,29.2590909 L25.3681818,21.55 C26.4522727,16.6113636 28.8613636,15.0454545 32.2340909,15.0454545 C34.7636364,15.0454545 36.6909091,16.3704545 37.6545455,17.2136364 L35.7272727,19.6227273 C34.8840909,18.9 33.6795455,18.1772727 32.3545455,18.1772727 C30.3068182,18.1772727 29.5840909,19.3818182 29.1022727,21.9113636 L27.5363636,29.2590909 L32.8363636,29.2590909 L32.8363636,32.0295455 L26.9340909,32.0295455 L26.3318182,34.6795455 C25.85,36.7272727 25.0068182,38.0522727 23.6818182,39.0159091 L23.6818182,39.1363636 C24.525,38.8954545 25.4886364,38.6545455 26.2113636,38.6545455 C28.2590909,38.6545455 29.9454545,39.4977273 32.2340909,39.4977273 C33.1977273,39.4977273 34.1613636,39.3772727 35.3659091,39.0159091 L34.8840909,42.2681818 C33.8,42.5090909 32.8363636,42.5090909 31.9931818,42.5090909 C28.8613636,42.5090909 26.5727273,41.425 23.4409091,41.425 C22.1159091,41.425 20.3090909,41.7863636 18.9840909,42.3886364 L18.9840909,39.2568182 C20.55,38.5340909 21.6340909,37.45 22.1159091,35.1613636 L22.8386364,32.0295455 L20.0681818,32.0295455 L20.0681818,29.2590909 L20.3090909,29.2590909 Z"/>
    </g>
    <path fill="#FFF" fill-rule="nonzero" d="M1.5,14.3652174 L5,14.3652174 L6.75,6.57391304 C7.875,1.5826087 10.375,2.48689958e-14 13.875,2.48689958e-14 C16.5,2.48689958e-14 18.5,1.33913043 19.5,2.19130435 L17.5,4.62608696 C16.625,3.89565217 15.375,3.16521739 14,3.16521739 C11.875,3.16521739 11.125,4.3826087 10.625,6.93913043 L9,14.3652174 L14.5,14.3652174 L14.5,17.1652174 L8.375,17.1652174 L7.75,19.8434783 C7.25,21.9130435 6.375,23.2521739 5,24.226087 L5,24.3478261 C5.875,24.1043478 6.875,23.8608696 7.625,23.8608696 C9.75,23.8608696 11.5,24.7130435 13.875,24.7130435 C14.875,24.7130435 15.875,24.5913043 17.125,24.226087 L16.625,27.5130435 C15.5,27.7565217 14.5,27.7565217 13.625,27.7565217 C10.375,27.7565217 8,26.6608696 4.75,26.6608696 C3.375,26.6608696 1.5,27.026087 0.125,27.6347826 L0.125,24.4695652 C1.75,23.7391304 2.875,22.6434783 3.375,20.3304348 L4.125,17.1652174 L1.25,17.1652174 L1.25,14.3652174 L1.5,14.3652174 Z" opacity=".4" transform="translate(18 15)"/>
  </g>
</svg>
