<svg xmlns="http://www.w3.org/2000/svg" width="41" height="43" viewBox="0 0 41 43">
  <g fill="none" fill-rule="evenodd" transform="translate(1 1)">
    <path stroke="#FFF" stroke-linecap="round" stroke-width="1.5" d="M0 .7C0 .7.6 18.47 10.67 27.8 19.1898261 21.3234254 24.3864246 11.3919854 24.85.7M10.67 27.8L10.67 33.49C10.67 33.49 10.86 41.98 16.83 40.86 22.8 39.74 21.12 33.06 24.1 29.12 27.08 25.18 32.69 25.36 34.74 26.4"/>
    <circle cx="36.4" cy="27.31" r="1.93" stroke="#FFF" stroke-linecap="round" stroke-width="1.5"/>
    <circle cx="36.4" cy="27.31" r="1.93" fill="#FFF" fill-rule="nonzero" opacity=".4"/>
    <path stroke="#FFF" stroke-linecap="round" stroke-width="1.5" d="M24 5.09C23.2274175 5.0267048 22.5487237 4.55242437 22.2236889 3.84868975 21.8986542 3.14495513 21.9776095 2.32073835 22.4303348 1.69150878 22.88306 1.06227921 23.6394515.725471897 24.41.81M0 .83C1.18188936.69745166 2.24745166 1.54811064 2.38 2.73 2.51254834 3.91188936 1.66188936 4.97745166.48 5.11"/>
    <path fill="#FFF" fill-rule="nonzero" d="M24 5.09C23.2274175 5.0267048 22.5487237 4.55242437 22.2236889 3.84868975 21.8986542 3.14495513 21.9776095 2.32073835 22.4303348 1.69150878 22.88306 1.06227921 23.6394515.725471897 24.41.81M0 .83C1.18188936.69745166 2.24745166 1.54811064 2.38 2.73 2.51254834 3.91188936 1.66188936 4.97745166.48 5.11" opacity=".4"/>
  </g>
</svg>
